<svg width="17" height="16" viewBox="0 0 17 16" fill="none" xmlns="http://www.w3.org/2000/svg">
<path d="M15.4274 3.98429C14.712 2.75868 13.7416 1.78829 12.5159 1.07292C11.29 0.357591 9.95183 0 8.50026 0C7.04883 0 5.71022 0.357591 4.48457 1.07292C3.25884 1.78818 2.28844 2.75857 1.57303 3.98429C0.857593 5.21009 0.5 6.54869 0.5 8C0.5 9.45138 0.857703 10.7898 1.57293 12.0156C2.28829 13.2412 3.25869 14.2116 4.48442 14.9271C5.71022 15.6424 7.04872 16 8.50011 16C9.9515 16 11.2901 15.6424 12.5159 14.9271C13.7415 14.2119 14.7119 13.2412 15.4272 12.0156C16.1424 10.7899 16.5 9.45131 16.5 8C16.5 6.54855 16.1424 5.2099 15.4274 3.98429Z" fill="#FB5A59"/>
<path d="M15.4274 3.98429C14.712 2.75868 13.7416 1.78829 12.5159 1.07292C11.29 0.357591 9.95183 0 8.50026 0C7.04883 0 5.71022 0.357591 4.48457 1.07292C3.25884 1.78818 2.28844 2.75857 1.57303 3.98429C0.857593 5.21009 0.5 6.54869 0.5 8C0.5 9.45138 0.857703 10.7898 1.57293 12.0156C2.28829 13.2412 3.25869 14.2116 4.48442 14.9271C5.71022 15.6424 7.04872 16 8.50011 16C9.9515 16 11.2901 15.6424 12.5159 14.9271C13.7415 14.2119 14.7119 13.2412 15.4272 12.0156C16.1424 10.7899 16.5 9.45131 16.5 8C16.5 6.54855 16.1424 5.2099 15.4274 3.98429Z" fill="#FB5A59"/>
<path d="M12.7352 8.60598C12.7352 8.76982 12.6753 8.91181 12.5555 9.03137C12.4356 9.15104 12.2939 9.21111 12.1301 9.21111H9.70993V11.6311C9.70993 11.7949 9.6499 11.9368 9.5302 12.0567C9.41057 12.1763 9.26872 12.2362 9.10481 12.2362H7.89481C7.73097 12.2362 7.58915 12.1763 7.46942 12.0567C7.34965 11.9368 7.28975 11.795 7.28975 11.6311V9.21111H4.86964C4.7058 9.21111 4.56405 9.15108 4.44425 9.03137C4.32451 8.91184 4.26465 8.76985 4.26465 8.60598V7.39583C4.26465 7.23199 4.32455 7.09017 4.44425 6.97043C4.56401 6.85066 4.70577 6.79076 4.86964 6.79076H7.28985V4.37062C7.28985 4.20675 7.34975 4.06503 7.46952 3.94523C7.58925 3.82549 7.73103 3.76562 7.89491 3.76562H9.10505C9.26888 3.76562 9.41077 3.82553 9.53044 3.94523C9.6501 4.06499 9.71017 4.20675 9.71017 4.37062V6.79076H12.1301C12.294 6.79076 12.4358 6.85066 12.5555 6.97043C12.6753 7.09013 12.7352 7.23195 12.7352 7.39583V8.60598Z" fill="white"/>
</svg>
