<svg width="32" height="32" viewBox="0 0 32 32" fill="none" xmlns="http://www.w3.org/2000/svg">
<rect width="32" height="32" rx="4" fill="#1C94A3"/>
<path d="M16.0027 11.7266C15.6447 11.7266 15.3499 12.0213 15.3499 12.3792V16.0002C15.3499 16.3581 15.6447 16.6529 16.0027 16.6529H18.9929C19.3509 16.6529 19.6457 16.3581 19.6457 16.0002C19.6457 15.6424 19.3509 15.3476 18.9929 15.3476H16.6555V12.4002C16.6555 12.0213 16.3606 11.7266 16.0027 11.7266Z" fill="white"/>
<path d="M23.0782 8.92632C21.1829 7.03158 18.677 6 16.0026 6C13.3282 6 10.8223 7.03158 8.92709 8.92632L8.54804 9.30526V7.24211C8.54804 6.88421 8.25322 6.58947 7.89524 6.58947C7.53725 6.58947 7.24243 6.88421 7.24243 7.24211V10.9053C7.24243 11.2632 7.53725 11.5579 7.89524 11.5579H11.5594C11.9173 11.5579 12.2122 11.2632 12.2122 10.9053C12.2122 10.5474 11.9173 10.2526 11.5594 10.2526H9.4746L9.85365 9.87368C11.3277 8.4 13.2651 7.51579 15.3288 7.36842V8.63158C15.3288 8.98947 15.6236 9.28421 15.9816 9.28421C16.3396 9.28421 16.6344 8.98947 16.6344 8.63158V7.36842C18.6981 7.51579 20.6354 8.4 22.1095 9.87368C23.6257 11.3895 24.468 13.3474 24.6154 15.3474H23.373C23.015 15.3474 22.7202 15.6421 22.7202 16C22.7202 16.3579 23.015 16.6526 23.373 16.6526H24.6154C24.468 18.6526 23.6257 20.6105 22.1095 22.1263C20.5933 23.6421 18.6349 24.4842 16.6344 24.6316V23.3895C16.6344 23.0316 16.3396 22.7368 15.9816 22.7368C15.6236 22.7368 15.3288 23.0316 15.3288 23.3895V24.6316C13.3282 24.4842 11.3698 23.6421 9.85365 22.1263C8.35852 20.6316 7.47407 18.7158 7.32666 16.6526H8.59016C8.94814 16.6526 9.24296 16.3579 9.24296 16C9.24296 15.6421 8.94814 15.3474 8.59016 15.3474H6.6528C6.29481 15.3474 6 15.6421 6 16C6 18.6737 7.03185 21.1789 8.92709 23.0737C10.8855 25.0316 13.4335 26 16.0026 26C18.5717 26 21.1198 25.0316 23.0782 23.0737C26.9739 19.1789 26.9739 12.8211 23.0782 8.92632Z" fill="white"/>
</svg>
