<svg width="24" height="24" viewBox="0 0 24 24" fill="none" xmlns="http://www.w3.org/2000/svg">
<path d="M8.57139 4V19.7909M20 8.57143H3.99996M19.9977 17.712L19.9863 6.28343C19.9856 5.67762 19.7446 5.09682 19.316 4.66866C18.8874 4.2405 18.3063 4 17.7005 4H6.27196C5.69531 3.99982 5.13989 4.21761 4.71705 4.60971C4.29422 5.00181 4.03521 5.53925 3.99196 6.11429L3.98511 6.288L3.99654 17.7166C3.99714 18.3224 4.23823 18.9032 4.66681 19.3313C5.0954 19.7595 5.67644 20 6.28225 20H17.7108C18.2875 20.0002 18.8429 19.7824 19.2657 19.3903C19.6886 18.9982 19.9476 18.4607 19.9908 17.8857L19.9977 17.712Z" stroke="#333333" stroke-linecap="round" stroke-linejoin="round"/>
</svg>
