<svg width="18" height="18" viewBox="0 0 18 18" fill="none" xmlns="http://www.w3.org/2000/svg">
<path fill-rule="evenodd" clip-rule="evenodd" d="M17.1 0H0.9C0.403184 0.000598559 0.000578607 0.417086 0 0.931035V17.069C0.000578607 17.5829 0.403184 17.9994 0.9 18H17.1C17.5968 17.9994 17.9994 17.5829 18 17.069V0.931035C17.9994 0.417086 17.5968 0.000598559 17.1 0ZM0.9 0.62069H17.1C17.2656 0.620882 17.3998 0.759715 17.4 0.931034V2.48276H0.6V0.931034C0.600186 0.759715 0.734392 0.620882 0.9 0.62069ZM0.9 17.3793H17.1C17.2656 17.3791 17.3998 17.2403 17.4 17.069V3.10345H0.6V17.069C0.600186 17.2403 0.734392 17.3791 0.9 17.3793Z" fill="#1C94A3"/>
<circle cx="3.90039" cy="1.55176" r="1" fill="#1C94A3"/>
<circle cx="2.69922" cy="1.55176" r="1" fill="#1C94A3"/>
<circle cx="1.5" cy="1.55176" r="1" fill="#1C94A3"/>
<path fill-rule="evenodd" clip-rule="evenodd" d="M2.3 5H9.5C9.66569 5 9.8 5.13895 9.8 5.31034V7.7931C9.8 7.9645 9.66569 8.10345 9.5 8.10345H2.3C2.13431 8.10345 2 7.9645 2 7.7931V5.31034C2 5.13895 2.13431 5 2.3 5ZM2.6 7.48276H9.2V5.62069H2.6V7.48276Z" fill="#1C94A3"/>
<path fill-rule="evenodd" clip-rule="evenodd" d="M12.3 5H14.982C15.1477 5 15.282 5.13895 15.282 5.31034V7.7931C15.282 7.9645 15.1477 8.10345 14.982 8.10345H12.3C12.1343 8.10345 12 7.9645 12 7.7931V5.31034C12 5.13895 12.1343 5 12.3 5ZM12.6 7.48276H14.7058V5.62069H12.6V7.48276Z" fill="#1C94A3"/>
<path fill-rule="evenodd" clip-rule="evenodd" d="M12.3 9H14.982C15.1477 9 15.282 9.13895 15.282 9.31034V11.7931C15.282 11.9645 15.1477 12.1034 14.982 12.1034H12.3C12.1343 12.1034 12 11.9645 12 11.7931V9.31034C12 9.13895 12.1343 9 12.3 9ZM12.6 11.4828H14.7058V9.62069H12.6V11.4828Z" fill="#1C94A3"/>
<path fill-rule="evenodd" clip-rule="evenodd" d="M2.3 9H9.5C9.66569 9 9.8 9.13895 9.8 9.31034V11.7931C9.8 11.9645 9.66569 12.1034 9.5 12.1034H2.3C2.13431 12.1034 2 11.9645 2 11.7931V9.31034C2 9.13895 2.13431 9 2.3 9ZM2.6 11.4828H9.2V9.62069H2.6V11.4828Z" fill="#1C94A3"/>
<path fill-rule="evenodd" clip-rule="evenodd" d="M2.3 13H9.5C9.66569 13 9.8 13.1389 9.8 13.3103V15.7931C9.8 15.9645 9.66569 16.1034 9.5 16.1034H2.3C2.13431 16.1034 2 15.9645 2 15.7931V13.3103C2 13.1389 2.13431 13 2.3 13ZM2.6 15.4828H9.2V13.6207H2.6V15.4828Z" fill="#1C94A3"/>
<path fill-rule="evenodd" clip-rule="evenodd" d="M13.9 14H15.1C15.5971 14 16 14.4168 16 14.931C16 15.4452 15.5971 15.8621 15.1 15.8621H13.9C13.4029 15.8621 13 15.4452 13 14.931C13 14.4168 13.4029 14 13.9 14ZM13.9 15.2414H15.1C15.2657 15.2414 15.4 15.1024 15.4 14.931C15.4 14.7596 15.2657 14.6207 15.1 14.6207H13.9C13.7343 14.6207 13.6 14.7596 13.6 14.931C13.6 15.1024 13.7343 15.2414 13.9 15.2414Z" fill="#1C94A3"/>
</svg>
