<svg width="20" height="20" viewBox="0 0 20 20" fill="none" xmlns="http://www.w3.org/2000/svg">
<path d="M10 2.03125C8.42393 2.03125 6.88326 2.49861 5.5728 3.37423C4.26235 4.24984 3.24097 5.49439 2.63784 6.95049C2.0347 8.40659 1.87689 10.0088 2.18437 11.5546C2.49185 13.1004 3.2508 14.5203 4.36525 15.6348C5.4797 16.7492 6.89959 17.5082 8.44538 17.8156C9.99116 18.1231 11.5934 17.9653 13.0495 17.3622C14.5056 16.759 15.7502 15.7377 16.6258 14.4272C17.5014 13.1167 17.9688 11.5761 17.9688 10C17.9663 7.88732 17.1259 5.86188 15.632 4.36798C14.1381 2.87409 12.1127 2.03373 10 2.03125ZM10 17.0312C8.60935 17.0312 7.24993 16.6189 6.09365 15.8463C4.93737 15.0737 4.03615 13.9755 3.50398 12.6907C2.9718 11.406 2.83255 9.9922 3.10386 8.62827C3.37516 7.26434 4.04482 6.01149 5.02816 5.02816C6.0115 4.04482 7.26435 3.37516 8.62827 3.10385C9.9922 2.83255 11.406 2.97179 12.6907 3.50397C13.9755 4.03615 15.0737 4.93736 15.8463 6.09365C16.6189 7.24993 17.0313 8.60935 17.0313 10C17.0292 11.8642 16.2877 13.6514 14.9696 14.9696C13.6514 16.2877 11.8642 17.0292 10 17.0312ZM14.8438 10C14.8438 10.1243 14.7944 10.2435 14.7065 10.3315C14.6186 10.4194 14.4993 10.4688 14.375 10.4688H10C9.87568 10.4688 9.75646 10.4194 9.66855 10.3315C9.58064 10.2435 9.53125 10.1243 9.53125 10V5.625C9.53125 5.50068 9.58064 5.38145 9.66855 5.29354C9.75646 5.20564 9.87568 5.15625 10 5.15625C10.1243 5.15625 10.2436 5.20564 10.3315 5.29354C10.4194 5.38145 10.4688 5.50068 10.4688 5.625V9.53125H14.375C14.4993 9.53125 14.6186 9.58064 14.7065 9.66854C14.7944 9.75645 14.8438 9.87568 14.8438 10Z" fill="black"/>
</svg>
