<svg width="15" height="16" viewBox="0 0 15 16" fill="none" xmlns="http://www.w3.org/2000/svg">
<path d="M7.5 0.0269775C6.94754 0.0269775 6.50009 0.474799 6.50009 1.02689V6.52707H0.999911C0.447455 6.52707 0 6.97489 0 7.52698C0 8.07943 0.447821 8.52689 0.999911 8.52689H6.50009V14.0271C6.50009 14.5795 6.94791 15.027 7.5 15.027C8.05245 15.027 8.49991 14.5792 8.49991 14.0271V8.52689H14.0001C14.5525 8.52689 15 8.07907 15 7.52698C15 6.97452 14.5522 6.52707 14.0001 6.52707H8.49991V1.02689C8.49991 0.474433 8.05209 0.0269775 7.5 0.0269775Z" fill="black"/>
</svg>
