<svg xmlns="http://www.w3.org/2000/svg" width="16" height="16" viewBox="0 0 16 16" fill="none">
<path d="M4.24652 2.15702C4.24652 3.32346 3.29782 4.26875 2.12765 4.26875C0.957492 4.26875 0.00878906 3.32346 0.00878906 2.15702C0.00878906 0.990796 0.957492 0.0452881 2.12765 0.0452881C3.29782 0.0452881 4.24652 0.990796 4.24652 2.15702Z" fill="#000000"/>
<path d="M10.1186 2.15702C10.1186 3.32346 9.16989 4.26875 7.99972 4.26875C6.82956 4.26875 5.88086 3.32346 5.88086 2.15702C5.88086 0.990796 6.82956 0.0452881 7.99972 0.0452881C9.16989 0.0452881 10.1186 0.990796 10.1186 2.15702Z" fill="#000000"/>
<path d="M15.9916 2.15702C15.9916 3.32346 15.0429 4.26875 13.8728 4.26875C12.7026 4.26875 11.7539 3.32346 11.7539 2.15702C11.7539 0.990796 12.7026 0.0452881 13.8728 0.0452881C15.0429 0.0452881 15.9916 0.990796 15.9916 2.15702Z" fill="#000000"/>
<path d="M4.24652 8.00968C4.24652 9.1759 3.29782 10.1214 2.12765 10.1214C0.957492 10.1214 0.00878906 9.1759 0.00878906 8.00968C0.00878906 6.84346 0.957492 5.89795 2.12765 5.89795C3.29782 5.89795 4.24652 6.84346 4.24652 8.00968Z" fill="#000000"/>
<path d="M10.1186 8.00968C10.1186 9.1759 9.16989 10.1214 7.99972 10.1214C6.82956 10.1214 5.88086 9.1759 5.88086 8.00968C5.88086 6.84346 6.82956 5.89795 7.99972 5.89795C9.16989 5.89795 10.1186 6.84346 10.1186 8.00968Z" fill="#000000"/>
<path d="M15.9916 8.00968C15.9916 9.1759 15.0429 10.1214 13.8728 10.1214C12.7026 10.1214 11.7539 9.1759 11.7539 8.00968C11.7539 6.84346 12.7026 5.89795 13.8728 5.89795C15.0429 5.89795 15.9916 6.84346 15.9916 8.00968Z" fill="#000000"/>
<path d="M4.24652 13.8623C4.24652 15.0286 3.29782 15.9741 2.12765 15.9741C0.957492 15.9741 0.00878906 15.0286 0.00878906 13.8623C0.00878906 12.6961 0.957492 11.7506 2.12765 11.7506C3.29782 11.7506 4.24652 12.6961 4.24652 13.8623Z" fill="#000000"/>
<path d="M10.1186 13.8623C10.1186 15.0286 9.16989 15.9741 7.99972 15.9741C6.82956 15.9741 5.88086 15.0286 5.88086 13.8623C5.88086 12.6961 6.82956 11.7506 7.99972 11.7506C9.16989 11.7506 10.1186 12.6961 10.1186 13.8623Z" fill="#000000"/>
<path d="M15.9916 13.8623C15.9916 15.0286 15.0429 15.9741 13.8728 15.9741C12.7026 15.9741 11.7539 15.0286 11.7539 13.8623C11.7539 12.6961 12.7026 11.7506 13.8728 11.7506C15.0429 11.7506 15.9916 12.6961 15.9916 13.8623Z" fill="#000000"/>
</svg>