<svg width="14" height="20" viewBox="0 0 14 20" fill="none" xmlns="http://www.w3.org/2000/svg">
<path fill-rule="evenodd" clip-rule="evenodd" d="M9.45687 1.88668H12.735C13.0654 1.88668 13.3334 2.16124 13.3333 2.50002V4.38666C13.3333 4.7254 13.0654 5 12.7349 5H0.598447C0.267932 5 0 4.72536 0 4.38666V2.50002C0 2.16128 0.267968 1.88668 0.598447 1.88668H3.87654V0.613341C3.87654 0.2746 4.1445 0 4.47498 0H8.85842C9.18894 0 9.45687 0.274637 9.45687 0.613341V1.88668ZM5 2.3267H8.33333V1.66667H5V2.3267Z" fill="#B8B8B8"/>
<path fill-rule="evenodd" clip-rule="evenodd" d="M0.566886 19.3776L0 6.66669H13.3333L12.7665 19.3776C12.751 19.7255 12.4498 20 12.0835 20H1.2499C0.88362 20 0.582365 19.7255 0.566886 19.3776ZM4.24242 17.7778C4.57714 17.7778 4.84848 17.501 4.84848 17.1597V9.50701C4.84848 9.16564 4.57711 8.88891 4.24242 8.88891C3.9077 8.88891 3.63636 9.16568 3.63636 9.50701V17.1597C3.63636 17.5011 3.90774 17.7778 4.24242 17.7778ZM7.27273 17.1597C7.27273 17.501 7.00139 17.7778 6.66667 17.7778C6.33195 17.7778 6.06061 17.5011 6.06061 17.1597V9.50701C6.06061 9.16568 6.33195 8.88891 6.66667 8.88891C7.00139 8.88891 7.27273 9.16564 7.27273 9.50701V17.1597ZM9.09091 17.7778C9.42563 17.7778 9.69697 17.501 9.69697 17.1597V9.50701C9.69697 9.16564 9.42563 8.88891 9.09091 8.88891C8.75619 8.88891 8.48485 9.16568 8.48485 9.50701V17.1597C8.48485 17.5011 8.75619 17.7778 9.09091 17.7778Z" fill="#B8B8B8"/>
</svg>
