<svg width="21" height="22" viewBox="0 0 21 22" fill="none" xmlns="http://www.w3.org/2000/svg">
<path d="M10.5 21C16.0228 21 20.5 16.5228 20.5 11C20.5 5.47715 16.0228 1 10.5 1C4.97715 1 0.5 5.47715 0.5 11C0.5 16.5228 4.97715 21 10.5 21Z" fill="white" stroke="#1C94A3"/>
<path d="M10.626 7.66797H7.70704C7.40975 7.66797 7.1665 7.96797 7.1665 8.33464C7.1665 8.7013 7.40975 9.0013 7.70704 9.0013H10.626C10.9233 9.0013 11.1665 8.7013 11.1665 8.33464C11.1665 7.96797 10.9233 7.66797 10.626 7.66797Z" fill="#1C94A3"/>
<path d="M14.6109 10.332H7.72206C7.4165 10.332 7.1665 10.632 7.1665 10.9987C7.1665 11.3654 7.4165 11.6654 7.72206 11.6654H14.6109C14.9165 11.6654 15.1665 11.3654 15.1665 10.9987C15.1665 10.632 14.9165 10.332 14.6109 10.332Z" fill="#1C94A3"/>
<path d="M14.6109 13H7.72206C7.4165 13 7.1665 13.3 7.1665 13.6667C7.1665 14.0333 7.4165 14.3333 7.72206 14.3333H14.6109C14.9165 14.3333 15.1665 14.0333 15.1665 13.6667C15.1665 13.3 14.9165 13 14.6109 13Z" fill="#1C94A3"/>
</svg>
