<svg width="10" height="12" viewBox="0 0 10 12" fill="none" xmlns="http://www.w3.org/2000/svg">
<path fill-rule="evenodd" clip-rule="evenodd" d="M2.51043 0.0109863H7.48821H7.48832C8.85715 0.0109863 9.97715 1.13101 9.97715 2.49993V9.49993C9.97715 10.8689 8.85712 11.9889 7.48821 11.9889H2.51043C1.14148 11.9889 0.0214844 10.8688 0.0214844 9.49993V2.49993C0.0214844 1.13099 1.14151 0.0109863 2.51043 0.0109863ZM4.82823 3.74432H2.80598C2.46376 3.74432 2.18382 4.02426 2.18382 4.36649C2.18382 4.70871 2.46376 4.98865 2.80598 4.98865H4.82823C5.17046 4.98865 5.4504 4.70871 5.4504 4.36649C5.4504 4.02426 5.17046 3.74432 4.82823 3.74432ZM6.78821 9.03321H2.74376C2.40154 9.03321 2.1216 8.75326 2.1216 8.41104C2.1216 8.06882 2.40154 7.78888 2.74376 7.78888H6.78821C7.13043 7.78888 7.41037 8.06882 7.41037 8.41104C7.41048 8.75326 7.13043 9.03321 6.78821 9.03321ZM2.74376 7.01096H6.78821C7.13043 7.01096 7.41048 6.73101 7.41037 6.38879C7.41037 6.04657 7.13043 5.76663 6.78821 5.76663H2.74376C2.40154 5.76663 2.1216 6.04657 2.1216 6.38879C2.1216 6.73101 2.40154 7.01096 2.74376 7.01096Z" fill="#A5B2B3"/>
</svg>
