<svg width="18" height="4" viewBox="0 0 18 4" fill="none" xmlns="http://www.w3.org/2000/svg">
<path fill-rule="evenodd" clip-rule="evenodd" d="M3.75 2.09204C3.75 2.32185 3.70474 2.54942 3.61679 2.76174C3.52884 2.97406 3.39994 3.16698 3.23744 3.32948C3.07493 3.49198 2.88202 3.62088 2.6697 3.70883C2.45738 3.79678 2.22981 3.84204 2 3.84204C1.77019 3.84204 1.54262 3.79678 1.3303 3.70883C1.11798 3.62088 0.925066 3.49198 0.762563 3.32948C0.600061 3.16698 0.471157 2.97406 0.383211 2.76174C0.295265 2.54942 0.25 2.32185 0.25 2.09204C0.25 1.62791 0.434375 1.18279 0.762563 0.854604C1.09075 0.526415 1.53587 0.342041 2 0.342041C2.46413 0.342041 2.90925 0.526415 3.23744 0.854604C3.56563 1.18279 3.75 1.62791 3.75 2.09204ZM9 0.342041C9.46413 0.342041 9.90925 0.526415 10.2374 0.854604C10.5656 1.18279 10.75 1.62791 10.75 2.09204C10.75 2.55617 10.5656 3.00129 10.2374 3.32948C9.90925 3.65767 9.46413 3.84204 9 3.84204C8.53587 3.84204 8.09075 3.65767 7.76256 3.32948C7.43437 3.00129 7.25 2.55617 7.25 2.09204C7.25 1.62791 7.43437 1.18279 7.76256 0.854604C8.09075 0.526415 8.53587 0.342041 9 0.342041ZM16 0.342041C16.4641 0.342041 16.9092 0.526415 17.2374 0.854604C17.5656 1.18279 17.75 1.62791 17.75 2.09204C17.75 2.55617 17.5656 3.00129 17.2374 3.32948C16.9092 3.65767 16.4641 3.84204 16 3.84204C15.5359 3.84204 15.0908 3.65767 14.7626 3.32948C14.4344 3.00129 14.25 2.55617 14.25 2.09204C14.25 1.62791 14.4344 1.18279 14.7626 0.854604C15.0908 0.526415 15.5359 0.342041 16 0.342041Z" fill="black"/>
</svg>
