<svg width="32" height="32" viewBox="0 0 32 32" fill="none" xmlns="http://www.w3.org/2000/svg">
<rect width="32" height="32" rx="4" fill="#1C94A3"/>
<path d="M16 20.577L11.462 16.038L12.169 15.319L15.5 18.65V8H16.5V18.65L19.83 15.32L20.538 16.038L16 20.577ZM8.615 24C8.155 24 7.771 23.846 7.463 23.538C7.15433 23.2293 7 22.845 7 22.385V19.962H8V22.385C8 22.5383 8.064 22.6793 8.192 22.808C8.32067 22.936 8.46167 23 8.615 23H23.385C23.5383 23 23.6793 22.936 23.808 22.808C23.936 22.6793 24 22.5383 24 22.385V19.962H25V22.385C25 22.845 24.846 23.229 24.538 23.537C24.2293 23.8457 23.845 24 23.385 24H8.615Z" fill="white"/>
</svg>
