<?xml version="1.0" encoding="UTF-8" ?>
<svg width="16" height="16" viewBox="0 0 16 16" fill="none" xmlns="http://www.w3.org/2000/svg" class="ml-1">
    <path d="M14.6666 4.82684C14.6671 4.7391 14.6503 4.65213 14.6171 4.5709C14.5839 4.48968 14.535 4.4158 14.4733 4.35351L11.6466 1.52684C11.5843 1.46505 11.5104 1.41617 11.4292 1.38299C11.348 1.34982 11.261 1.333 11.1733 1.33351C11.0855 1.333 10.9985 1.34982 10.9173 1.38299C10.8361 1.41617 10.7622 1.46505 10.6999 1.52684L8.81326 3.41351L1.5266 10.7002C1.46481 10.7625 1.41593 10.8363 1.38275 10.9176C1.34957 10.9988 1.33276 11.0858 1.33326 11.1735V14.0002C1.33326 14.177 1.4035 14.3466 1.52853 14.4716C1.65355 14.5966 1.82312 14.6668 1.99993 14.6668H4.8266C4.91988 14.6719 5.01319 14.6573 5.10048 14.624C5.18776 14.5907 5.26707 14.5394 5.33326 14.4735L12.5799 7.18684L14.4733 5.33351C14.5341 5.26889 14.5837 5.19453 14.6199 5.11351C14.6264 5.06037 14.6264 5.00665 14.6199 4.95351C14.623 4.92247 14.623 4.89121 14.6199 4.86017L14.6666 4.82684ZM4.55326 13.3335H2.6666V11.4468L9.2866 4.82684L11.1733 6.71351L4.55326 13.3335ZM12.1133 5.77351L10.2266 3.88684L11.1733 2.94684L13.0533 4.82684L12.1133 5.77351Z" fill="#D7D8DF" />
</svg>