<svg width="12" height="13" viewBox="0 0 12 13" fill="none" xmlns="http://www.w3.org/2000/svg">
<path d="M7.73601 2.06049C8.09512 1.70152 8.58211 1.49991 9.08986 1.5C9.59762 1.50009 10.0845 1.70189 10.4435 2.06099C10.8025 2.42009 11.0041 2.90709 11.004 3.41485C11.0039 3.9226 10.8021 4.40952 10.443 4.76849L10.209 5.00249L7.50201 2.29549L7.73601 2.06049ZM6.79501 3.00249L1.65001 8.14649C1.58057 8.21625 1.53326 8.30496 1.51401 8.40149L1.01001 10.9015C0.993569 10.9823 0.997364 11.0659 1.02106 11.1449C1.04475 11.2239 1.08761 11.2957 1.14582 11.3542C1.20402 11.4126 1.27577 11.4557 1.35466 11.4796C1.43356 11.5036 1.51716 11.5077 1.59801 11.4915L4.10201 10.9915C4.19866 10.972 4.28738 10.9243 4.35701 10.8545L9.50201 5.70949L6.79501 3.00249Z" fill="#1C94A3"/>
</svg>
