<svg width="12" height="16" viewBox="0 0 12 16" fill="none" xmlns="http://www.w3.org/2000/svg">
<path d="M1.23047 16.0002H9.53846V13.8463C9.53846 13.6764 9.67624 13.5386 9.84616 13.5386H12.0001V1.23047H1.23047V16.0002Z" fill="#B255FF"/>
<path d="M0 14.7698H0.615407V0.92311C0.615407 0.753187 0.753187 0.615407 0.92311 0.615407H10.7696V0H0V14.7698Z" fill="#B255FF"/>
<path d="M10.1543 15.5653L11.5653 14.1543H10.1543V15.5653Z" fill="#B255FF"/>
<path fill-rule="evenodd" clip-rule="evenodd" d="M9.31518 5.38456C9.1469 5.21623 8.91871 5.12142 8.68069 5.12109L8.68092 5.12113C8.4425 5.12009 8.21356 5.21451 8.04522 5.3834L7.9253 5.50239L9.19663 6.77372L9.31633 6.65446C9.48434 6.48576 9.57854 6.25735 9.57832 6.01926C9.5781 5.78123 9.48347 5.55294 9.31518 5.38456ZM4.75252 11.0887L3.61324 9.94939L3.19824 11.5222L4.75252 11.0887ZM4.34546 10.0259L8.06869 6.30265L7.59728 5.83206L3.87405 9.55529L4.34519 10.0259H4.34546ZM5.14518 10.8241L4.67388 10.3535L4.67394 10.3535L8.39717 6.63026L8.86841 7.10201L5.14518 10.8241Z" fill="white"/>
</svg>
