<svg width="19" height="25" viewBox="0 0 19 25" fill="none" xmlns="http://www.w3.org/2000/svg">
<path fill-rule="evenodd" clip-rule="evenodd" d="M0.0273438 23.0624H0.986774V1.47528C0.986774 1.21037 1.20158 0.995563 1.46649 0.995563H16.8174V0.0361328H0.0273438V23.0624ZM1.9462 24.9813H14.8985V21.6233C14.8985 21.3584 15.1133 21.1436 15.3782 21.1436H18.7362V1.95499H1.9462V24.9813ZM18.0578 22.1027L15.8579 24.3026V22.1027H18.0578Z" fill="#61CBA5"/>
<path fill-rule="evenodd" clip-rule="evenodd" d="M14.5501 8.42979C14.2877 8.16736 13.932 8.01955 13.5609 8.01904L13.5612 8.0191C13.1895 8.01748 12.8326 8.16469 12.5702 8.42798L12.3832 8.61349L14.3652 10.5955L14.5519 10.4096C14.8138 10.1466 14.9607 9.79048 14.9603 9.4193C14.96 9.04821 14.8124 8.6923 14.5501 8.42979ZM7.43682 17.3227L5.66066 15.5466L5.01367 17.9985L7.43682 17.3227ZM6.80225 15.6646L12.6068 9.86001L11.8719 9.12634L6.06732 14.9309L6.80184 15.6646H6.80225ZM8.049 16.9107L7.31424 16.177L7.31433 16.177L13.1189 10.3724L13.8536 11.1078L8.049 16.9107Z" fill="white"/>
</svg>
