<svg width="9" height="10" viewBox="0 0 9 10" fill="none" xmlns="http://www.w3.org/2000/svg">
<path fill-rule="evenodd" clip-rule="evenodd" d="M7.89066 4.89776L7.86631 0.664769L7.86635 0.664823C7.86435 0.308474 7.57323 0.0189858 7.21733 0.0183484L3.00316 0.0102539C2.02261 0.0120681 2.01995 1.48299 3.0006 1.48127L4.83243 1.47811C5.1379 1.47756 5.20995 1.65283 4.99497 1.8678L1.17311 5.68967C0.885262 5.97751 0.884448 6.44297 1.17129 6.72981C1.45795 7.01647 1.92359 7.01584 2.21144 6.728L6.0333 2.90613C6.24909 2.69034 6.42345 2.76166 6.4229 3.06858L6.41965 4.90032C6.41793 5.88096 7.88885 5.87831 7.89066 4.89776ZM0.0195312 9.26274C0.0195312 9.66968 0.349367 9.99951 0.756308 9.99951H8.12473C8.53167 9.99951 8.8615 9.66968 8.8615 9.26274C8.8615 8.8558 8.53167 8.52583 8.12473 8.52583H0.756308C0.349367 8.52583 0.0195312 8.8558 0.0195312 9.26274Z" fill="white"/>
</svg>
