<svg width="16" height="16" viewBox="0 0 16 16" fill="none" xmlns="http://www.w3.org/2000/svg">
<path d="M8.5 5V11H10.5C10.6326 11 10.7598 11.0527 10.8536 11.1464C10.9473 11.2402 11 11.3674 11 11.5C11 11.6326 10.9473 11.7598 10.8536 11.8536C10.7598 11.9473 10.6326 12 10.5 12H5.5C5.36739 12 5.24021 11.9473 5.14645 11.8536C5.05268 11.7598 5 11.6326 5 11.5C5 11.3674 5.05268 11.2402 5.14645 11.1464C5.24021 11.0527 5.36739 11 5.5 11H7.5V5H5V5.5C5 5.63261 4.94732 5.75979 4.85355 5.85355C4.75979 5.94732 4.63261 6 4.5 6C4.36739 6 4.24021 5.94732 4.14645 5.85355C4.05268 5.75979 4 5.63261 4 5.5V4.5C4 4.36739 4.05268 4.24021 4.14645 4.14645C4.24021 4.05268 4.36739 4 4.5 4H11.5C11.5665 3.99999 11.6324 4.01324 11.6937 4.03899C11.755 4.06474 11.8106 4.10247 11.8571 4.14996C11.9037 4.19746 11.9403 4.25376 11.9648 4.31559C11.9894 4.37741 12.0013 4.4435 12 4.51L11.979 5.51C11.9763 5.64261 11.9211 5.76873 11.8255 5.86062C11.7298 5.95252 11.6016 6.00265 11.469 6C11.3364 5.99735 11.2103 5.94213 11.1184 5.84648C11.0265 5.75084 10.9763 5.62261 10.979 5.49L10.989 5H8.5ZM1 15H4.5C4.63261 15 4.75979 15.0527 4.85355 15.1464C4.94732 15.2402 5 15.3674 5 15.5C5 15.6326 4.94732 15.7598 4.85355 15.8536C4.75979 15.9473 4.63261 16 4.5 16H0.5C0.367392 16 0.240215 15.9473 0.146447 15.8536C0.0526784 15.7598 0 15.6326 0 15.5V11.504C0 11.3714 0.0526784 11.2442 0.146447 11.1504C0.240215 11.0567 0.367392 11.004 0.5 11.004C0.632608 11.004 0.759785 11.0567 0.853553 11.1504C0.947322 11.2442 1 11.3714 1 11.504V15ZM1 1V4.497C1 4.62961 0.947322 4.75679 0.853553 4.85055C0.759785 4.94432 0.632608 4.997 0.5 4.997C0.367392 4.997 0.240215 4.94432 0.146447 4.85055C0.0526784 4.75679 0 4.62961 0 4.497V0.5C0 0.367392 0.0526784 0.240215 0.146447 0.146447C0.240215 0.0526784 0.367392 0 0.5 0L4.5 0C4.63261 0 4.75979 0.0526784 4.85355 0.146447C4.94732 0.240215 5 0.367392 5 0.5C5 0.632608 4.94732 0.759785 4.85355 0.853553C4.75979 0.947322 4.63261 1 4.5 1H1ZM15 1H11.505C11.3724 1 11.2452 0.947322 11.1514 0.853553C11.0577 0.759785 11.005 0.632608 11.005 0.5C11.005 0.367392 11.0577 0.240215 11.1514 0.146447C11.2452 0.0526784 11.3724 0 11.505 0L15.5 0C15.6326 0 15.7598 0.0526784 15.8536 0.146447C15.9473 0.240215 16 0.367392 16 0.5V4.5C16 4.63261 15.9473 4.75979 15.8536 4.85355C15.7598 4.94732 15.6326 5 15.5 5C15.3674 5 15.2402 4.94732 15.1464 4.85355C15.0527 4.75979 15 4.63261 15 4.5V1ZM15 15V11.5C15 11.3674 15.0527 11.2402 15.1464 11.1464C15.2402 11.0527 15.3674 11 15.5 11C15.6326 11 15.7598 11.0527 15.8536 11.1464C15.9473 11.2402 16 11.3674 16 11.5V15.5C16 15.6326 15.9473 15.7598 15.8536 15.8536C15.7598 15.9473 15.6326 16 15.5 16H11.5C11.3674 16 11.2402 15.9473 11.1464 15.8536C11.0527 15.7598 11 15.6326 11 15.5C11 15.3674 11.0527 15.2402 11.1464 15.1464C11.2402 15.0527 11.3674 15 11.5 15H15Z" fill="#1C94A3"/>
</svg>
