<svg width="12" height="9" viewBox="0 0 12 9" fill="none" xmlns="http://www.w3.org/2000/svg">
<path fill-rule="evenodd" clip-rule="evenodd" d="M6 0C3.12984 0 0.715358 2.41056 0 4.32723C0.715427 6.24388 3.12984 8.65446 6 8.65446C8.87016 8.65446 11.2849 6.2439 12 4.32723C11.2848 2.41059 8.87016 0 6 0ZM6 6.90188C4.57813 6.90188 3.42535 5.74922 3.42535 4.32723C3.42535 2.90525 4.5782 1.75259 6 1.75259C7.42214 1.75259 8.57465 2.90525 8.57465 4.32723C8.57465 5.74922 7.42208 6.90188 6 6.90188ZM4.3593 4.32719C4.3593 3.42103 5.094 2.68648 6 2.68648C6.90597 2.68648 7.64071 3.42103 7.64071 4.32719C7.64071 5.23334 6.90597 5.96789 6 5.96789C5.09403 5.96789 4.3593 5.23334 4.3593 4.32719Z" fill="#1C94A3"/>
</svg>
