<svg width="18" height="18" viewBox="0 0 18 18" fill="none" xmlns="http://www.w3.org/2000/svg">
<g clip-path="url(#clip0_61_117)">
<path d="M9 2.783C8.015 1.936 6.587 1.81 5.287 1.94C3.773 2.093 2.245 2.612 1.293 3.045C1.20565 3.08473 1.13158 3.14876 1.07962 3.22944C1.02767 3.31012 1.00003 3.40404 1 3.5V14.5C1.00002 14.5837 1.02104 14.666 1.06112 14.7394C1.1012 14.8128 1.15906 14.875 1.22941 14.9203C1.29976 14.9656 1.38034 14.9925 1.46378 14.9986C1.54722 15.0046 1.63085 14.9896 1.707 14.955C2.589 14.555 4.01 14.074 5.387 13.935C6.796 13.793 7.977 14.022 8.61 14.812C8.65685 14.8704 8.71622 14.9175 8.78372 14.9499C8.85122 14.9823 8.92513 14.9991 9 14.9991C9.07487 14.9991 9.14878 14.9823 9.21628 14.9499C9.28378 14.9175 9.34315 14.8704 9.39 14.812C10.023 14.022 11.204 13.793 12.612 13.935C13.99 14.074 15.412 14.555 16.293 14.955C16.3692 14.9896 16.4528 15.0046 16.5362 14.9986C16.6197 14.9925 16.7002 14.9656 16.7706 14.9203C16.8409 14.875 16.8988 14.8128 16.9389 14.7394C16.979 14.666 17 14.5837 17 14.5V3.5C17 3.40404 16.9723 3.31012 16.9204 3.22944C16.8684 3.14876 16.7944 3.08473 16.707 3.045C15.755 2.612 14.227 2.093 12.713 1.94C11.413 1.809 9.985 1.936 9 2.783Z" fill="white"/>
<path d="M2 3.828C2.885 3.458 4.154 3.059 5.388 2.935C6.718 2.801 7.846 2.998 8.5 3.687V13.433C7.565 12.903 6.38 12.83 5.287 12.94C4.107 13.06 2.917 13.401 2 13.751V3.828ZM9.5 3.687C10.154 2.998 11.282 2.801 12.612 2.935C13.846 3.059 15.115 3.458 16 3.828V13.751C15.082 13.401 13.893 13.059 12.713 12.941C11.619 12.83 10.435 12.902 9.5 13.433V3.687ZM9 2.783C8.015 1.936 6.587 1.81 5.287 1.94C3.773 2.093 2.245 2.612 1.293 3.045C1.20565 3.08473 1.13158 3.14876 1.07962 3.22944C1.02767 3.31012 1.00003 3.40404 1 3.5V14.5C1.00002 14.5837 1.02104 14.666 1.06112 14.7394C1.1012 14.8128 1.15906 14.875 1.22941 14.9203C1.29976 14.9656 1.38034 14.9925 1.46378 14.9986C1.54722 15.0046 1.63085 14.9896 1.707 14.955C2.589 14.555 4.01 14.074 5.387 13.935C6.796 13.793 7.977 14.022 8.61 14.812C8.65685 14.8704 8.71622 14.9175 8.78372 14.9499C8.85122 14.9823 8.92513 14.9991 9 14.9991C9.07487 14.9991 9.14878 14.9823 9.21628 14.9499C9.28378 14.9175 9.34315 14.8704 9.39 14.812C10.023 14.022 11.204 13.793 12.612 13.935C13.99 14.074 15.412 14.555 16.293 14.955C16.3692 14.9896 16.4528 15.0046 16.5362 14.9986C16.6197 14.9925 16.7002 14.9656 16.7706 14.9203C16.8409 14.875 16.8988 14.8128 16.9389 14.7394C16.979 14.666 17 14.5837 17 14.5V3.5C17 3.40404 16.9723 3.31012 16.9204 3.22944C16.8684 3.14876 16.7944 3.08473 16.707 3.045C15.755 2.612 14.227 2.093 12.713 1.94C11.413 1.809 9.985 1.936 9 2.783Z" fill="#C3C3C3"/>
</g>
<defs>
<clipPath id="clip0_61_117">
<rect width="16" height="16" fill="white" transform="translate(1 1)"/>
</clipPath>
</defs>
</svg>
