<svg width="18" height="18" viewBox="0 0 18 18" fill="none" xmlns="http://www.w3.org/2000/svg">
<g clip-path="url(#clip0_387_864)">
<path d="M9.75 5.625C9.75 5.82391 9.67098 6.01468 9.53033 6.15533C9.38968 6.29598 9.19891 6.375 9 6.375C8.80109 6.375 8.61032 6.29598 8.46967 6.15533C8.32902 6.01468 8.25 5.82391 8.25 5.625C8.25 5.42609 8.32902 5.23532 8.46967 5.09467C8.61032 4.95402 8.80109 4.875 9 4.875C9.19891 4.875 9.38968 4.95402 9.53033 5.09467C9.67098 5.23532 9.75 5.42609 9.75 5.625ZM7.5 8.4375C7.5 8.28832 7.55926 8.14524 7.66475 8.03975C7.77024 7.93426 7.91332 7.875 8.0625 7.875H9.1875C9.33668 7.875 9.47976 7.93426 9.58525 8.03975C9.69074 8.14524 9.75 8.28832 9.75 8.4375V11.625H10.3125C10.4617 11.625 10.6048 11.6843 10.7102 11.7898C10.8157 11.8952 10.875 12.0383 10.875 12.1875C10.875 12.3367 10.8157 12.4798 10.7102 12.5852C10.6048 12.6907 10.4617 12.75 10.3125 12.75H8.0625C7.91332 12.75 7.77024 12.6907 7.66475 12.5852C7.55926 12.4798 7.5 12.3367 7.5 12.1875C7.5 12.0383 7.55926 11.8952 7.66475 11.7898C7.77024 11.6843 7.91332 11.625 8.0625 11.625H8.625V9H8.0625C7.91332 9 7.77024 8.94074 7.66475 8.83525C7.55926 8.72976 7.5 8.58668 7.5 8.4375Z" fill="#1C94A3"/>
<path d="M9 0.75C13.5562 0.75 17.25 4.44375 17.25 9C17.25 13.5562 13.5562 17.25 9 17.25C4.44375 17.25 0.75 13.5562 0.75 9C0.75 4.44375 4.44375 0.75 9 0.75ZM1.875 9C1.875 10.8897 2.62567 12.7019 3.96186 14.0381C5.29806 15.3743 7.11033 16.125 9 16.125C10.8897 16.125 12.7019 15.3743 14.0381 14.0381C15.3743 12.7019 16.125 10.8897 16.125 9C16.125 7.11033 15.3743 5.29806 14.0381 3.96186C12.7019 2.62567 10.8897 1.875 9 1.875C7.11033 1.875 5.29806 2.62567 3.96186 3.96186C2.62567 5.29806 1.875 7.11033 1.875 9Z" fill="#1C94A3"/>
</g>
<defs>
<clipPath id="clip0_387_864">
<rect width="18" height="18" fill="white"/>
</clipPath>
</defs>
</svg>
