<svg width="20" height="20" viewBox="0 0 20 20" fill="none" xmlns="http://www.w3.org/2000/svg">
<path d="M16.7001 4.24183L13.7788 1.30042C13.5858 1.10801 13.3245 1 13.0522 1C12.7799 1 12.5187 1.10801 12.3256 1.30042L1.96923 11.6602L1.02366 15.7482C0.991044 15.8977 0.992162 16.0525 1.02694 16.2015C1.06171 16.3504 1.12926 16.4897 1.22465 16.6092C1.32004 16.7286 1.44087 16.8252 1.5783 16.8919C1.71573 16.9586 1.86629 16.9937 2.01899 16.9946C2.09014 17.0018 2.16184 17.0018 2.23299 16.9946L6.35863 16.0474L16.7001 5.69758C16.8922 5.5042 17 5.2425 17 4.96971C17 4.69691 16.8922 4.43521 16.7001 4.24183ZM5.86097 15.15L1.99411 15.9626L2.87498 12.1637L10.6236 4.43128L13.6096 7.42254L5.86097 15.15ZM14.2765 6.69966L11.2905 3.70839L13.0224 1.98342L15.9586 4.97469L14.2765 6.69966Z" fill="#1C94A3"/>
<rect x="2" y="18" width="15" height="1" fill="#1C94A3"/>
</svg>
