<svg width="32" height="32" viewBox="0 0 32 32" fill="none" xmlns="http://www.w3.org/2000/svg">
<rect width="32" height="32" rx="4" fill="#1C94A3"/>
<path fill-rule="evenodd" clip-rule="evenodd" d="M20.7788 7.30042L23.7001 10.2418C23.8922 10.4352 24 10.6969 24 10.9697C24 11.2425 23.8922 11.5042 23.7001 11.6976L13.3586 22.0474L9.23299 22.9946C9.16184 23.0018 9.09014 23.0018 9.01899 22.9946C8.86629 22.9937 8.71573 22.9586 8.5783 22.8919C8.44087 22.8252 8.32004 22.7286 8.22465 22.6092C8.12926 22.4897 8.06171 22.3504 8.02694 22.2015C7.99216 22.0525 7.99104 21.8977 8.02366 21.7482L8.96923 17.6602L19.3256 7.30042C19.5187 7.10801 19.7799 7 20.0522 7C20.3245 7 20.5858 7.10801 20.7788 7.30042ZM8.99411 21.9626L12.861 21.15L20.6096 13.4225L17.6236 10.4313L9.87498 18.1637L8.99411 21.9626ZM18.2905 9.70839L21.2765 12.6997L22.9586 10.9747L20.0224 7.98342L18.2905 9.70839ZM9 24H24V25H9V24Z" fill="white"/>
</svg>
