<svg width="17" height="18" viewBox="0 0 17 18" fill="none" xmlns="http://www.w3.org/2000/svg">
<path d="M8.5 16.5C12.6421 16.5 16 13.1421 16 9C16 4.85786 12.6421 1.5 8.5 1.5C4.35786 1.5 1 4.85786 1 9C1 13.1421 4.35786 16.5 8.5 16.5Z" fill="#1C94A3"/>
<path d="M9.91018 11.7446L9.81531 12.1444C9.5307 12.2602 9.30335 12.3484 9.13406 12.409C8.96458 12.4698 8.76766 12.5 8.5433 12.5C8.19875 12.5 7.93075 12.413 7.73961 12.2401C7.54847 12.0666 7.45287 11.8467 7.45287 11.58C7.45287 11.4767 7.45981 11.3705 7.47423 11.2623C7.48877 11.1539 7.5119 11.0319 7.54354 10.8955L7.89923 9.5976C7.93087 9.47332 7.95777 9.35556 7.97931 9.2442C8.00116 9.13354 8.01168 9.03171 8.01168 8.94005C8.01168 8.7743 7.9784 8.65837 7.91213 8.59318C7.84586 8.52819 7.71941 8.49519 7.53167 8.49519C7.43972 8.49519 7.34522 8.51037 7.24889 8.53973C7.15213 8.56922 7.06943 8.5977 7 8.62417L7.09511 8.22404C7.32812 8.12623 7.55084 8.04248 7.76389 7.97296C7.97694 7.90326 8.17824 7.86838 8.36865 7.86838C8.71083 7.86838 8.97487 7.95364 9.16029 8.12416C9.34571 8.29481 9.43839 8.51602 9.43839 8.78861C9.43839 8.84501 9.4323 8.94438 9.41922 9.08642C9.40644 9.22877 9.38264 9.3592 9.34796 9.47784L8.99379 10.7705C8.96477 10.8744 8.93866 10.9931 8.91596 11.1266C8.89253 11.2593 8.88134 11.3607 8.88134 11.4287C8.88134 11.6004 8.91846 11.7175 8.99288 11.7798C9.06785 11.8421 9.19698 11.8731 9.38039 11.8731C9.4665 11.8731 9.56447 11.8574 9.67334 11.8265C9.7819 11.7955 9.86107 11.7684 9.91018 11.7446ZM10 6.31746C10 6.54269 9.91767 6.73504 9.75221 6.8932C9.58717 7.05192 9.3883 7.13135 9.15566 7.13135C8.92229 7.13135 8.72294 7.05192 8.55602 6.8932C8.3894 6.73498 8.30591 6.54269 8.30591 6.31746C8.30591 6.09268 8.3894 5.90001 8.55602 5.73984C8.72263 5.57993 8.92235 5.5 9.15566 5.5C9.38824 5.5 9.58717 5.58012 9.75221 5.73984C9.91779 5.90001 10 6.09274 10 6.31746Z" fill="white"/>
</svg>
