<svg width="25" height="24" viewBox="0 0 25 24" fill="none" xmlns="http://www.w3.org/2000/svg">
<g clip-path="url(#clip0_961_834)">
<path d="M5.93918 6.71289L5.13739 7.61133L5.21619 7.95117H7.28076C6.85917 10.3691 6.54397 12.5488 5.93918 15.9082C5.21619 20.1934 4.80052 21.2461 4.55427 21.6309C4.33757 22.0117 4.0263 22.209 3.60472 22.209C3.14177 22.209 2.30452 21.8457 1.85536 21.4336C1.69382 21.3242 1.50273 21.3516 1.29981 21.4844C0.893993 21.8242 0.499992 22.3477 0.499992 22.8164C0.476352 23.4492 1.32937 24 2.14298 24C2.86006 24 3.91598 23.5547 5.02707 22.5078C6.54594 21.0801 7.68264 19.1211 8.63218 14.8867C9.24288 12.1836 9.5305 10.4258 9.95996 7.95312L12.5249 7.72266L13.0805 6.71289H10.1924C10.9391 2.05664 11.5222 1.36719 12.2393 1.36719C12.716 1.36719 13.2715 1.73047 13.9098 2.44531C14.0989 2.70312 14.3826 2.67578 14.5993 2.5C14.9638 2.28516 15.4129 1.73438 15.4425 1.23438C15.4642 0.683594 14.8022 0 13.6636 0C12.6313 0 11.0494 0.683594 9.71962 2.02734C8.55338 3.25195 7.94268 4.78125 7.5211 6.71289H5.93918ZM14.1462 9.83008C14.9421 8.7793 15.4189 8.42969 15.6651 8.42969C15.9192 8.42969 16.1221 8.67773 16.5575 10.0723L17.3022 12.4531C15.8621 14.6367 14.8082 15.8535 14.1679 15.8535C13.9551 15.8535 13.7404 15.7871 13.5887 15.6387C13.439 15.4902 13.2735 15.3672 13.112 15.3672C12.584 15.3672 11.93 16.002 11.9182 16.7891C11.9063 17.5918 12.4737 18.166 13.2184 18.166C14.4969 18.166 15.5784 16.9219 17.6666 13.623L18.2773 15.6641C18.8014 17.418 19.416 18.166 20.1843 18.166C21.1338 18.166 22.4104 17.3633 23.8032 15.1934L23.2201 14.5332C22.3828 15.5332 21.8273 16.002 21.4983 16.002C21.1319 16.002 20.8108 15.4473 20.3872 14.084L19.4948 11.207C20.0228 10.4355 20.5428 9.78711 20.9999 9.26953C21.5436 8.6543 21.9632 8.39258 22.2489 8.39258C22.4892 8.39258 22.698 8.49414 22.828 8.63672C22.9994 8.82422 23.1019 8.91211 23.3048 8.91211C23.7638 8.91211 24.473 8.33398 24.4986 7.56836C24.5223 6.85742 24.077 6.25195 23.3048 6.25195C22.1385 6.25195 21.1102 7.24805 19.1303 10.166L18.7226 8.91406C18.1513 7.15625 17.773 6.25195 16.9771 6.25195C16.0512 6.25195 14.7786 7.38086 13.5336 9.16992L14.1462 9.83008Z" fill="black"/>
</g>
<defs>
<clipPath id="clip0_961_834">
<rect width="23.7949" height="24" fill="white" transform="translate(0.5)"/>
</clipPath>
</defs>
</svg>
