<svg width="16" height="16" viewBox="0 0 16 16" fill="none" xmlns="http://www.w3.org/2000/svg">
<path fill-rule="evenodd" clip-rule="evenodd" d="M7.01956 3.64623C6.92581 3.55259 6.79873 3.5 6.66623 3.5C6.53373 3.5 6.40664 3.55259 6.31289 3.64623L2.31289 7.64623C2.21926 7.73998 2.16667 7.86706 2.16667 7.99956C2.16667 8.13206 2.21926 8.25914 2.31289 8.35289L6.31289 12.3529C6.35867 12.402 6.41387 12.4414 6.4752 12.4687C6.53653 12.4961 6.60274 12.5108 6.66988 12.512C6.73701 12.5131 6.8037 12.5008 6.86596 12.4756C6.92822 12.4505 6.98477 12.4131 7.03225 12.3656C7.07973 12.3181 7.11716 12.2615 7.14231 12.1993C7.16746 12.137 7.17981 12.0703 7.17862 12.0032C7.17744 11.9361 7.16274 11.8699 7.13541 11.8085C7.10809 11.7472 7.06868 11.692 7.01956 11.6462L3.87289 8.49956H13.3329C13.4655 8.49956 13.5927 8.44688 13.6864 8.35311C13.7802 8.25935 13.8329 8.13217 13.8329 7.99956C13.8329 7.86695 13.7802 7.73978 13.6864 7.64601C13.5927 7.55224 13.4655 7.49956 13.3329 7.49956H3.87289L7.01956 4.35289C7.11319 4.25914 7.16579 4.13206 7.16579 3.99956C7.16579 3.86706 7.11319 3.73998 7.01956 3.64623Z" fill="#1C94A3"/>
</svg>
