<svg width="24" height="24" viewBox="0 0 24 24" fill="none" xmlns="http://www.w3.org/2000/svg">
<path fill-rule="evenodd" clip-rule="evenodd" d="M10.529 5.47007C10.3884 5.32962 10.1978 5.25073 9.99902 5.25073C9.80027 5.25073 9.60965 5.32962 9.46902 5.47007L3.46902 11.4701C3.32857 11.6107 3.24968 11.8013 3.24968 12.0001C3.24968 12.1988 3.32857 12.3894 3.46902 12.5301L9.46902 18.5301C9.53769 18.6038 9.62049 18.6629 9.71249 18.7039C9.80448 18.7448 9.9038 18.7669 10.0045 18.7687C10.1052 18.7704 10.2052 18.7519 10.2986 18.7142C10.392 18.6765 10.4768 18.6203 10.5481 18.5491C10.6193 18.4779 10.6754 18.3931 10.7131 18.2997C10.7509 18.2063 10.7694 18.1063 10.7676 18.0056C10.7658 17.9048 10.7438 17.8055 10.7028 17.7135C10.6618 17.6215 10.6027 17.5387 10.529 17.4701L5.80902 12.7501H19.999C20.1979 12.7501 20.3887 12.6711 20.5294 12.5304C20.67 12.3898 20.749 12.199 20.749 12.0001C20.749 11.8012 20.67 11.6104 20.5294 11.4697C20.3887 11.3291 20.1979 11.2501 19.999 11.2501H5.80902L10.529 6.53007C10.6695 6.38945 10.7484 6.19882 10.7484 6.00007C10.7484 5.80132 10.6695 5.6107 10.529 5.47007Z" fill="black"/>
</svg>
