<svg width="12" height="12" viewBox="0 0 12 12" fill="none" xmlns="http://www.w3.org/2000/svg">
    <path d="M10.6667 0H1.33333C0.6 0 0 0.6 0 1.33333V10.6667C0 11.4 0.6 12 1.33333 12H10.6667C11.4 12 12 11.4 12 10.6667V1.33333C12 0.6 11.4 0 10.6667 0ZM2.66667 2.66667H4V4H2.66667V2.66667ZM2.66667 5.33333H4V6.66667H2.66667V5.33333ZM2.66667 8H4V9.33333H2.66667V8ZM9.33333 9.33333H5.33333V8H9.33333V9.33333ZM9.33333 6.66667H5.33333V5.33333H9.33333V6.66667ZM9.33333 4H5.33333V2.66667H9.33333V4Z" fill="#B8B8B8" />
</svg>
