<svg width="12" height="12" viewBox="0 0 12 12" fill="none" xmlns="http://www.w3.org/2000/svg">
<path fill-rule="evenodd" clip-rule="evenodd" d="M8.4177 3.54429H11.2974C11.4736 3.54429 11.6428 3.61433 11.7674 3.73891C11.892 3.86349 11.962 4.03261 11.962 4.20884V11.2974C11.962 11.4736 11.8919 11.6428 11.7674 11.7674C11.6428 11.892 11.4737 11.962 11.2974 11.962H4.20884C4.03263 11.962 3.86352 11.8919 3.73891 11.7674C3.61431 11.6428 3.54429 11.4737 3.54429 11.2974V8.4177H0.664544C0.488342 8.4177 0.319225 8.34766 0.19462 8.22308C0.0700152 8.09849 0 7.92938 0 7.75315V0.664544C0 0.488342 0.070038 0.319225 0.19462 0.19462C0.319203 0.0700152 0.488319 0 0.664544 0H7.75315C7.92935 0 8.09847 0.070038 8.22308 0.19462C8.34768 0.319203 8.4177 0.488319 8.4177 0.664544V3.54429ZM1.32909 1.3291V7.0886L3.54429 7.08858V4.20884C3.54429 4.03263 3.61433 3.86352 3.73891 3.73891C3.86349 3.61431 4.03261 3.54429 4.20884 3.54429H7.08858V1.3291H1.32909ZM7.08858 4.8734V7.08859H4.87339V4.8734H7.08858ZM4.87339 8.41771V10.6329H10.6329L10.6329 4.87342H8.41768V7.75316C8.41768 7.92937 8.34765 8.09848 8.22306 8.22309C8.09848 8.34769 7.92937 8.41771 7.75314 8.41771H4.87339Z" fill="white"/>
</svg>
