<svg width="20" height="20" viewBox="0 0 20 20" fill="none" xmlns="http://www.w3.org/2000/svg">
<path d="M12.3611 9.58341C11.2965 9.58341 10.4167 8.70355 10.4167 7.63897C10.4167 7.2948 10.5168 6.97494 10.6772 6.693C10.5897 6.68619 10.5061 6.66675 10.4167 6.66675C9.64469 6.67184 8.90578 6.98077 8.3599 7.52665C7.81402 8.07253 7.5051 8.81144 7.5 9.58341C7.5 11.1798 8.82028 12.5001 10.4167 12.5001C12.0121 12.5001 13.3333 11.1798 13.3333 9.58341C13.3333 9.49397 13.3139 9.41036 13.3071 9.32286C13.0251 9.48328 12.7053 9.58341 12.3611 9.58341Z" fill="#1C94A3"/>
<path d="M9.99967 3.33325C3.04034 3.33325 0.948799 9.36626 0.929653 9.42734L0.833008 9.71545L0.928741 10.0036C0.948799 10.0647 3.04034 16.0977 9.99967 16.0977C16.959 16.0977 19.0506 10.0647 19.0697 10.0036L19.1663 9.71545L19.0706 9.42734C19.0505 9.36626 16.959 3.33325 9.99967 3.33325ZM9.99967 15.1859C4.98505 15.1859 2.31915 10.7676 1.86145 9.71545C2.32097 8.65966 4.98505 4.245 9.99967 4.245C15.4701 4.245 17.6802 8.6633 18.1379 9.71545C17.6784 10.7713 15.1161 15.1859 9.99967 15.1859Z" fill="#1C94A3"/>
</svg>
