<svg width="54" height="40" viewBox="0 0 54 40" fill="none" xmlns="http://www.w3.org/2000/svg">
<path d="M21.2944 5.35169V2.6903C21.2944 1.20449 20.095 0 18.6154 0H5.4695C3.9899 0 2.79053 1.20449 2.79053 2.6903V37.3096C2.79053 38.7955 3.9899 40 5.4695 40H50.8092C52.2887 40 53.4882 38.7955 53.4882 37.3096V10.7325C53.4882 9.24659 52.2887 8.0421 50.8092 8.0421H23.9734C22.4938 8.0421 21.2944 6.83761 21.2944 5.35169Z" fill="#DADDDD"/>
<path d="M47.9067 11.1565L23.7217 11.1977L23.7207 10.7388L47.9059 10.6977L47.9067 11.1565Z" fill="#E6E6E7"/>
<path d="M47.9067 14.4124L23.7217 14.4535L23.7207 13.9947L47.9058 13.9535L47.9067 14.4124Z" fill="#E6E6E7"/>
<path d="M47.9067 17.6682L23.7217 17.7093L23.7207 17.2504L47.9059 17.2093L47.9067 17.6682Z" fill="#E6E6E7"/>
<path d="M18.5038 5.35169V2.6903C18.5038 1.20449 17.3044 0 15.825 0H2.67887C1.19938 0 0 1.20449 0 2.6903V37.3096C0 38.7955 1.19938 40 2.67887 40H48.0187C49.4983 40 50.6977 38.7955 50.6977 37.3096V10.7325C50.6977 9.24659 49.4983 8.0421 48.0187 8.0421H21.1828C19.7033 8.0421 18.5038 6.83761 18.5038 5.35169Z" fill="#F0F1F1"/>
<path d="M41.8628 12.5581L41.8604 11.1711L46.0439 11.1628L46.0464 12.5498L41.8628 12.5581Z" fill="#DADDDD"/>
</svg>
