<svg width="48" height="48" viewBox="0 0 48 48" fill="none" xmlns="http://www.w3.org/2000/svg">
<g clip-path="url(#clip0_890_194)">
<path fill-rule="evenodd" clip-rule="evenodd" d="M22.8394 7H25.9584C28.6728 7 30.823 7 32.5051 7.2277C34.2359 7.46285 35.6374 7.95695 36.7435 9.07016C37.8482 10.1849 38.3385 11.5972 38.5718 13.3415C38.7978 15.0381 38.7978 19.5364 38.7978 22.2718V28.3915C38.7978 31.1269 38.7978 32.2938 38.5718 33.989C38.3385 35.7332 37.8482 37.1456 36.7435 38.2603C35.6374 39.3735 34.2359 39.8676 32.5051 40.1027C30.8215 40.3304 28.6728 40.3304 25.9584 40.3304H22.8394C20.125 40.3304 17.9748 40.3304 16.2927 40.1027C14.5619 39.8676 13.1604 39.3735 12.0542 38.2603C10.9496 37.1456 10.4593 35.7332 10.226 33.989C10 32.2924 10 31.1269 10 28.3915V22.2718C10 19.5364 10 15.0366 10.226 13.3415C10.4593 11.5972 10.9496 10.1849 12.0542 9.07016C13.1604 7.95695 14.5619 7.46285 16.2927 7.2277C17.9762 7 20.125 7 22.8394 7ZM16.5866 9.44074C15.1009 9.64165 14.2443 10.0197 13.6182 10.6492C12.995 11.2787 12.6199 12.1419 12.4205 13.6391C12.2167 15.169 12.2137 19.5171 12.2137 22.3552V28.3082C12.2137 31.1463 12.2167 32.1629 12.4205 33.6928C12.6199 35.1885 12.995 36.0517 13.6197 36.6812C14.2443 37.3108 15.1009 37.6888 16.5866 37.8897C18.1047 38.0951 20.1043 38.098 22.9206 38.098H25.8742C28.6905 38.098 30.6916 38.0951 32.2097 37.8897C33.6939 37.6888 34.5505 37.3108 35.1751 36.6812C35.7998 36.0517 36.1749 35.1885 36.3743 33.6913C36.5781 32.1629 36.5811 31.1463 36.5811 28.3082V22.3552C36.5811 19.5171 36.5781 15.169 36.3743 13.6376C36.1749 12.1419 35.7998 11.2787 35.1751 10.6492C34.5505 10.0197 33.6939 9.64165 32.2082 9.44074C30.6916 9.23536 28.6905 9.23238 25.8742 9.23238H22.9206C20.1043 9.23238 18.1062 9.23536 16.5866 9.44074ZM17.384 20.222C17.384 19.926 17.5007 19.642 17.7085 19.4327C17.9162 19.2234 18.1979 19.1058 18.4916 19.1058H30.3061C30.5999 19.1058 30.8816 19.2234 31.0893 19.4327C31.297 19.642 31.4137 19.926 31.4137 20.222C31.4137 20.518 31.297 20.8019 31.0893 21.0113C30.8816 21.2206 30.5999 21.3382 30.3061 21.3382H18.4916C18.1979 21.3382 17.9162 21.2206 17.7085 21.0113C17.5007 20.8019 17.384 20.518 17.384 20.222ZM17.384 26.175C17.384 25.879 17.5007 25.5951 17.7085 25.3858C17.9162 25.1764 18.1979 25.0588 18.4916 25.0588H25.8757C26.1694 25.0588 26.4512 25.1764 26.6589 25.3858C26.8666 25.5951 26.9833 25.879 26.9833 26.175C26.9833 26.471 26.8666 26.755 26.6589 26.9643C26.4512 27.1736 26.1694 27.2912 25.8757 27.2912H18.4916C18.1979 27.2912 17.9162 27.1736 17.7085 26.9643C17.5007 26.755 17.384 26.471 17.384 26.175Z" fill="#D8DDDD"/>
<path d="M17.7081 31.3755C17.5003 31.5848 17.3836 31.8687 17.3836 32.1647C17.3836 32.4608 17.5003 32.7447 17.7081 32.954C17.9158 33.1633 18.1975 33.2809 18.4913 33.2809H25.8753C26.1691 33.2809 26.4508 33.1633 26.6585 32.954C26.8662 32.7447 26.9829 32.4608 26.9829 32.1647C26.9829 31.8687 26.8662 31.5848 26.6585 31.3755C26.4508 31.1662 26.1691 31.0485 25.8753 31.0485H18.4913C18.1975 31.0485 17.9158 31.1662 17.7081 31.3755Z" fill="#D8DDDD"/>
<circle cx="38.5" cy="9.5" r="7.5" fill="white"/>
<path d="M38.5 2C34.3574 2 31 5.35742 31 9.5C31 13.6426 34.3574 17 38.5 17C42.6426 17 46 13.6426 46 9.5C46 5.35742 42.6426 2 38.5 2ZM42.874 10.124C42.874 10.4697 42.5957 10.748 42.25 10.748H39.751V13.25C39.751 13.5957 39.4727 13.874 39.127 13.874H37.876C37.5303 13.874 37.252 13.5928 37.252 13.25V10.751H34.75C34.4043 10.751 34.126 10.4697 34.126 10.127V8.87598C34.126 8.53027 34.4043 8.25195 34.75 8.25195H37.249V5.75C37.249 5.4043 37.5273 5.12598 37.873 5.12598H39.124C39.4697 5.12598 39.748 5.40723 39.748 5.75V8.24902H42.25C42.5957 8.24902 42.874 8.53027 42.874 8.87305V10.124Z" fill="#D8DDDD"/>
<circle cx="11.0711" cy="38.0703" r="5" transform="rotate(-45 11.0711 38.0703)" fill="white"/>
<path d="M7.53553 34.5348C5.5827 36.4876 5.5827 39.653 7.53553 41.6058C9.48836 43.5587 12.6538 43.5587 14.6066 41.6058C16.5594 39.653 16.5594 36.4876 14.6066 34.5348C12.6538 32.5819 9.48836 32.5819 7.53553 34.5348ZM13.4272 36.3025C13.5901 36.4655 13.5901 36.7279 13.4272 36.8909L12.2491 38.0689L13.4286 39.2484C13.5915 39.4113 13.5915 39.6737 13.4286 39.8367L12.8388 40.4264C12.6759 40.5894 12.4121 40.588 12.2505 40.4264L11.0724 39.2484L9.89302 40.4278C9.73005 40.5908 9.46627 40.5894 9.30468 40.4278L8.71497 39.8381C8.552 39.6751 8.552 39.4127 8.71497 39.2497L9.89302 38.0717L8.71358 36.8923C8.55062 36.7293 8.55062 36.4669 8.71358 36.3039L9.3033 35.7142C9.46627 35.5512 9.73005 35.5526 9.89164 35.7142L11.0697 36.8923L12.2491 35.7128C12.4121 35.5499 12.6759 35.5512 12.8375 35.7128L13.4272 36.3025Z" fill="#E2E9E9"/>
<path d="M9.7365 7.72162C9.87568 7.8608 9.87568 8.08489 9.7365 8.22407L7.66292 10.2976L9.73768 12.3724C9.87686 12.5116 9.87686 12.7357 9.73768 12.8749L9.23406 13.3785C9.09488 13.5177 8.86961 13.5165 8.73162 13.3785L6.65803 11.3049L4.58327 13.3797C4.4441 13.5188 4.21882 13.5177 4.08083 13.3797L3.57721 12.876C3.43803 12.7369 3.43803 12.5128 3.57721 12.3736L5.65079 10.3L3.57603 8.22525C3.43685 8.08607 3.43685 7.86198 3.57603 7.7228L4.07965 7.21918C4.21882 7.08 4.4441 7.08118 4.58209 7.21918L6.65568 9.29276L8.73044 7.218C8.86961 7.07883 9.09489 7.08 9.23288 7.218L9.7365 7.72162Z" fill="#E2E9E9"/>
<path d="M44.184 19.8846C44.3143 20.015 44.3143 20.2249 44.184 20.3553L43.2415 21.2977L44.1851 22.2413C44.3155 22.3716 44.3155 22.5816 44.1851 22.7119L43.7133 23.1837C43.5829 23.3141 43.3719 23.313 43.2426 23.1837L42.3002 22.2413L41.3567 23.1848C41.2263 23.3152 41.0153 23.3141 40.886 23.1848L40.4142 22.713C40.2838 22.5827 40.2838 22.3727 40.4142 22.2424L41.3567 21.2999L40.4131 20.3564C40.2827 20.226 40.2827 20.0161 40.4131 19.8857L40.8849 19.4139C41.0153 19.2836 41.2263 19.2847 41.3555 19.4139L42.298 20.3564L43.2415 19.4128C43.3719 19.2825 43.5829 19.2836 43.7122 19.4128L44.184 19.8846Z" fill="#E2E9E9"/>
<path d="M33.184 0.884615C33.3143 1.01499 33.3143 1.22491 33.184 1.35528L32.2415 2.29772L33.1851 3.24127C33.3155 3.37164 33.3155 3.58156 33.1851 3.71194L32.7133 4.18371C32.5829 4.31408 32.3719 4.31298 32.2426 4.18371L31.3002 3.24127L30.3567 4.18481C30.2263 4.31519 30.0153 4.31408 29.886 4.18481L29.4142 3.71304C29.2838 3.58267 29.2838 3.37275 29.4142 3.24237L30.3567 2.29993L29.4131 1.35639C29.2827 1.22601 29.2827 1.01609 29.4131 0.885719L29.8849 0.413947C30.0153 0.283574 30.2263 0.284679 30.3555 0.413947L31.298 1.35639L32.2415 0.412842C32.3719 0.282469 32.5829 0.283574 32.7122 0.412842L33.184 0.884615Z" fill="#E2E9E9"/>
</g>
<defs>
<clipPath id="clip0_890_194">
<rect width="48" height="48" fill="white"/>
</clipPath>
</defs>
</svg>
