<svg width="41" height="48" viewBox="0 0 41 48" fill="none" xmlns="http://www.w3.org/2000/svg">
<path d="M23.8327 0C24.151 0 24.4562 0.126418 24.6812 0.351444C24.9062 0.576471 25.0326 0.881672 25.0326 1.19991V6.13286C25.0326 6.45109 24.9062 6.75629 24.6812 6.98132C24.4562 7.20634 24.151 7.33276 23.8327 7.33276C23.5145 7.33276 23.2093 7.20634 22.9843 6.98132C22.7592 6.75629 22.6328 6.45109 22.6328 6.13286V1.19991C22.6328 0.881672 22.7592 0.576471 22.9843 0.351444C23.2093 0.126418 23.5145 0 23.8327 0ZM40.7647 16.932C40.7647 17.2502 40.6383 17.5555 40.4133 17.7805C40.1883 18.0055 39.8831 18.1319 39.5648 18.1319H34.6319C34.3136 18.1319 34.0084 18.0055 33.7834 17.7805C33.5584 17.5555 33.432 17.2502 33.432 16.932C33.432 16.6138 33.5584 16.3086 33.7834 16.0836C34.0084 15.8585 34.3136 15.7321 34.6319 15.7321H39.5648C39.8831 15.7321 40.1883 15.8585 40.4133 16.0836C40.6383 16.3086 40.7647 16.6138 40.7647 16.932ZM35.8967 4.86807C36.1214 5.09305 36.2476 5.39802 36.2476 5.716C36.2476 6.03398 36.1214 6.33895 35.8967 6.56393L32.3393 10.1213C32.1117 10.3332 31.8108 10.4485 31.4999 10.4432C31.189 10.4378 30.8923 10.3121 30.6722 10.0925C30.4526 9.8724 30.3269 9.5757 30.3216 9.26482C30.3162 8.95394 30.4315 8.65308 30.6434 8.42548L34.1992 4.86807C34.3106 4.75656 34.4429 4.66811 34.5886 4.60776C34.7342 4.54741 34.8903 4.51635 35.0479 4.51635C35.2056 4.51635 35.3617 4.54741 35.5073 4.60776C35.6529 4.66811 35.7852 4.75656 35.8967 4.86807Z" fill="#D8DDDD"/>
<path fill-rule="evenodd" clip-rule="evenodd" d="M28.8066 41.6587C28.5733 43.4029 28.083 44.8152 26.9783 45.9299C25.8722 47.0431 24.4707 47.5372 22.7399 47.7723C21.0563 48 18.9076 48 16.1932 48H13.0742C10.3598 48 8.20959 48 6.5275 47.7723C4.79668 47.5372 3.39519 47.0431 2.28906 45.9299C1.18441 44.8152 0.69411 43.4029 0.460775 41.6587C0.234823 39.9621 0.235352 21.7354 0.235352 19C7.49902 40 30.4767 29.1297 28.8066 41.6587Z" fill="#F6F6F6"/>
<path fill-rule="evenodd" clip-rule="evenodd" d="M13.0737 10.666H16.1928C18.9071 10.666 21.0574 10.666 22.7395 10.8937C24.4703 11.1289 25.8718 11.623 26.9779 12.7362C28.0825 13.8509 28.5728 15.2632 28.8062 17.0075C29.0321 18.7041 29.0321 26.2024 29.0321 28.9378V35.0575C29.0321 37.793 29.0321 39.9599 28.8062 41.655C28.5728 43.3992 28.0825 44.8116 26.9779 45.9263C25.8718 47.0395 24.4703 47.5336 22.7395 47.7687C21.0559 47.9964 18.9071 47.9964 16.1928 47.9964H13.0737C10.3594 47.9964 8.20914 47.9964 6.52705 47.7687C4.79624 47.5336 3.39474 47.0395 2.28861 45.9263C1.18396 44.8116 0.693662 43.3992 0.460327 41.655C0.234375 39.9584 0.234375 37.793 0.234375 35.0575V28.9378C0.234375 26.2024 0.234375 18.7026 0.460327 17.0075C0.693662 15.2632 1.18396 13.8509 2.28861 12.7362C3.39474 11.623 4.79624 11.1289 6.52705 10.8937C8.21062 10.666 10.3594 10.666 13.0737 10.666ZM6.82094 13.1068C5.33527 13.3077 4.47872 13.6857 3.85255 14.3152C3.22934 14.9448 2.85423 15.8079 2.65486 17.3051C2.45106 18.8351 2.44811 26.1831 2.44811 29.0212V34.9742C2.44811 37.8123 2.45106 39.8289 2.65486 41.3588C2.85423 42.8545 3.22934 43.7177 3.85403 44.3472C4.47872 44.9768 5.33527 45.3548 6.82094 45.5557C8.3391 45.7611 10.3387 45.7641 13.155 45.7641H16.1086C18.9249 45.7641 20.9259 45.7611 22.4441 45.5557C23.9283 45.3548 24.7848 44.9768 25.4095 44.3472C26.0342 43.7177 26.4093 42.8545 26.6087 41.3573C26.8125 39.8289 26.8154 37.8123 26.8154 34.9742V29.0212C26.8154 26.1831 26.8125 18.8351 26.6087 17.3036C26.4093 15.8079 26.0342 14.9448 25.4095 14.3152C24.7848 13.6857 23.9283 13.3077 22.4426 13.1068C20.9259 12.9014 18.9249 12.8984 16.1086 12.8984H13.155C10.3387 12.8984 8.34057 12.9014 6.82094 13.1068ZM7.61841 23.888C7.61841 23.592 7.73511 23.3081 7.94283 23.0987C8.15054 22.8894 8.43227 22.7718 8.72602 22.7718H20.5405C20.8342 22.7718 21.116 22.8894 21.3237 23.0987C21.5314 23.3081 21.6481 23.592 21.6481 23.888C21.6481 24.184 21.5314 24.4679 21.3237 24.6773C21.116 24.8866 20.8342 25.0042 20.5405 25.0042H8.72602C8.43227 25.0042 8.15054 24.8866 7.94283 24.6773C7.73511 24.4679 7.61841 24.184 7.61841 23.888ZM7.61841 29.841C7.61841 29.545 7.73511 29.2611 7.94283 29.0518C8.15054 28.8424 8.43227 28.7248 8.72602 28.7248H16.1101C16.4038 28.7248 16.6855 28.8424 16.8933 29.0518C17.101 29.2611 17.2177 29.545 17.2177 29.841C17.2177 30.1371 17.101 30.421 16.8933 30.6303C16.6855 30.8396 16.4038 30.9572 16.1101 30.9572H8.72602C8.43227 30.9572 8.15054 30.8396 7.94283 30.6303C7.73511 30.421 7.61841 30.1371 7.61841 29.841Z" fill="#D8DDDD"/>
<path d="M7.94244 35.0415C7.73472 35.2508 7.61802 35.5347 7.61802 35.8308C7.61802 36.1268 7.73472 36.4107 7.94244 36.62C8.15015 36.8293 8.43188 36.9469 8.72563 36.9469H16.1097C16.4034 36.9469 16.6852 36.8293 16.8929 36.62C17.1006 36.4107 17.2173 36.1268 17.2173 35.8308C17.2173 35.5347 17.1006 35.2508 16.8929 35.0415C16.6852 34.8322 16.4034 34.7146 16.1097 34.7146H8.72563C8.43188 34.7146 8.15015 34.8322 7.94244 35.0415Z" fill="#D8DDDD"/>
</svg>
