<svg width="63" height="47" viewBox="0 0 63 47" fill="none" xmlns="http://www.w3.org/2000/svg">
<path d="M3.5 45.5C1.55853 45.5 1.5 42.956 1.5 42V8.5L18 8L24 13.5C30.5451 13.2794 44.7055 12.9705 47 13.5C49.2945 14.0295 49.0824 15.6569 48.494 15.9511V23.5H14L7.5 45.5H3.5Z" fill="#F6F6F6"/>
<path d="M6.94959 47.0009C2.86375 47.0009 0 46.4802 0 41.8162V11.4796C0 10.2712 0.216941 8.9416 1.15576 8.00087C2.09649 7.06205 3.42354 6.84766 4.63196 6.84766H18.9179L24.6541 12.5838H48H49.9146C49.9146 13.0009 49.9146 19.6703 49.9146 22.2912L47.9936 22.2923V14.4519H23.5011L17.7649 8.71574H3.63196C3.11762 8.71574 2.69505 8.88114 2.36426 9.21192C2.03348 9.54271 1.86809 9.96527 1.86809 10.4796V41.4864C1.86809 45.5009 5.51555 45.0209 6.61976 45.0209L13.116 22.2923H59.622L53.12 43.9607C52.8485 44.8727 52.4263 45.9425 51.6558 46.5009C50.8852 47.0573 49.926 47.0009 48.9757 47.0009H6.94959ZM8.60831 45.1328L50.5 45.0009L56.7415 24.1604H14.267L8.60831 45.1328Z" fill="#D8DDDD"/>
<path d="M47.125 0C47.4234 0 47.7095 0.118526 47.9205 0.329505C48.1315 0.540483 48.25 0.826631 48.25 1.125V5.75C48.25 6.04837 48.1315 6.33452 47.9205 6.5455C47.7095 6.75647 47.4234 6.875 47.125 6.875C46.8266 6.875 46.5405 6.75647 46.3295 6.5455C46.1185 6.33452 46 6.04837 46 5.75V1.125C46 0.826631 46.1185 0.540483 46.3295 0.329505C46.5405 0.118526 46.8266 0 47.125 0ZM63 15.875C63 16.1734 62.8815 16.4595 62.6705 16.6705C62.4595 16.8815 62.1734 17 61.875 17H57.25C56.9516 17 56.6655 16.8815 56.4545 16.6705C56.2435 16.4595 56.125 16.1734 56.125 15.875C56.125 15.5766 56.2435 15.2905 56.4545 15.0795C56.6655 14.8685 56.9516 14.75 57.25 14.75H61.875C62.1734 14.75 62.4595 14.8685 62.6705 15.0795C62.8815 15.2905 63 15.5766 63 15.875ZM58.4358 4.56417C58.6465 4.7751 58.7648 5.06104 58.7648 5.35917C58.7648 5.65729 58.6465 5.94323 58.4358 6.15417L55.1005 9.4895C54.8871 9.68811 54.605 9.79627 54.3136 9.79123C54.0221 9.7862 53.7439 9.66836 53.5375 9.4625C53.3316 9.25609 53.2138 8.97792 53.2088 8.68645C53.2037 8.39497 53.3119 8.11289 53.5105 7.8995L56.8443 4.56417C56.9488 4.45962 57.0729 4.37669 57.2094 4.32011C57.3459 4.26353 57.4923 4.23441 57.6401 4.23441C57.7879 4.23441 57.9342 4.26353 58.0708 4.32011C58.2073 4.37669 58.3314 4.45962 58.4358 4.56417Z" fill="#D8DDDD"/>
</svg>
