<svg width="63" height="47" viewBox="0 0 63 47" fill="none" xmlns="http://www.w3.org/2000/svg">
    <path d="M3.5 45.4992C1.55853 45.4992 1.5 42.9552 1.5 41.9992V8.49921L18 7.99921L24 13.4992C30.5451 13.2786 44.7055 12.9697 47 13.4992C49.2945 14.0287 49.0824 15.6561 48.494 15.9503V23.4992H14L7.5 45.4992H3.5Z" fill="#F6F6F6" />
    <path d="M6.94959 46.9992C2.86375 46.9992 0 46.4785 0 41.8146V11.478C0 10.2695 0.216941 8.93995 1.15576 7.99922C2.09649 7.0604 3.42354 6.84601 4.63196 6.84601H18.9179L24.6541 12.5822H48H49.9146C49.9146 12.9992 49.9146 19.6687 49.9146 22.2896L47.9936 22.2907V14.4503H23.5011L17.7649 8.71409H3.63196C3.11762 8.71409 2.69505 8.87949 2.36426 9.21027C2.03348 9.54106 1.86809 9.96362 1.86809 10.478V41.4848C1.86809 45.4992 5.51555 45.0193 6.61976 45.0193L13.116 22.2907H59.622L53.12 43.959C52.8485 44.8711 52.4263 45.9409 51.6558 46.4992C50.8852 47.0556 49.926 46.9992 48.9757 46.9992H6.94959ZM8.60831 45.1311L50.5 44.9992L56.7415 24.1587H14.267L8.60831 45.1311Z" fill="#D8DDDD" />
    <path d="M47.125 -0.000793457C47.4234 -0.000793457 47.7095 0.117733 47.9205 0.328711C48.1315 0.53969 48.25 0.825838 48.25 1.12421V5.74921C48.25 6.04757 48.1315 6.33372 47.9205 6.5447C47.7095 6.75568 47.4234 6.87421 47.125 6.87421C46.8266 6.87421 46.5405 6.75568 46.3295 6.5447C46.1185 6.33372 46 6.04757 46 5.74921V1.12421C46 0.825838 46.1185 0.53969 46.3295 0.328711C46.5405 0.117733 46.8266 -0.000793457 47.125 -0.000793457ZM63 15.8742C63 16.1726 62.8815 16.4587 62.6705 16.6697C62.4595 16.8807 62.1734 16.9992 61.875 16.9992H57.25C56.9516 16.9992 56.6655 16.8807 56.4545 16.6697C56.2435 16.4587 56.125 16.1726 56.125 15.8742C56.125 15.5758 56.2435 15.2897 56.4545 15.0787C56.6655 14.8677 56.9516 14.7492 57.25 14.7492H61.875C62.1734 14.7492 62.4595 14.8677 62.6705 15.0787C62.8815 15.2897 63 15.5758 63 15.8742ZM58.4358 4.56337C58.6465 4.77431 58.7648 5.06025 58.7648 5.35837C58.7648 5.6565 58.6465 5.94243 58.4358 6.15337L55.1005 9.48871C54.8871 9.68732 54.605 9.79548 54.3136 9.79044C54.0221 9.78541 53.7439 9.66757 53.5375 9.46171C53.3316 9.2553 53.2138 8.97713 53.2088 8.68565C53.2037 8.39418 53.3119 8.1121 53.5105 7.89871L56.8443 4.56337C56.9488 4.45883 57.0729 4.3759 57.2094 4.31932C57.3459 4.26274 57.4923 4.23361 57.6401 4.23361C57.7879 4.23361 57.9342 4.26274 58.0708 4.31932C58.2073 4.3759 58.3314 4.45883 58.4358 4.56337Z" fill="#D8DDDD" />
</svg>
