<svg width="16" height="16" viewBox="0 0 16 16" fill="none" xmlns="http://www.w3.org/2000/svg">
<path d="M3.99959 14.6667C3.63293 14.6667 3.31893 14.536 3.05759 14.2747C2.79626 14.0133 2.66582 13.6995 2.66626 13.3333V6.66666C2.66626 6.29999 2.79693 5.98599 3.05826 5.72466C3.31959 5.46332 3.63337 5.33288 3.99959 5.33332H4.66626V3.99999C4.66626 3.07777 4.99137 2.29155 5.64159 1.64132C6.29182 0.991101 7.07782 0.666213 7.99959 0.666657C8.92182 0.666657 9.70804 0.991768 10.3583 1.64199C11.0085 2.29221 11.3334 3.07821 11.3329 3.99999V5.33332H11.9996C12.3663 5.33332 12.6803 5.46399 12.9416 5.72532C13.2029 5.98666 13.3334 6.30044 13.3329 6.66666V13.3333C13.3329 13.7 13.2023 14.014 12.9409 14.2753C12.6796 14.5367 12.3658 14.6671 11.9996 14.6667H3.99959ZM7.99959 11.3333C8.36626 11.3333 8.68026 11.2027 8.94159 10.9413C9.20293 10.68 9.33337 10.3662 9.33293 9.99999C9.33293 9.63332 9.20226 9.31932 8.94093 9.05799C8.67959 8.79666 8.36582 8.66621 7.99959 8.66666C7.63293 8.66666 7.31893 8.79732 7.05759 9.05866C6.79626 9.31999 6.66582 9.63377 6.66626 9.99999C6.66626 10.3667 6.79693 10.6807 7.05826 10.942C7.31959 11.2033 7.63337 11.3338 7.99959 11.3333ZM5.99959 5.33332H9.99959V3.99999C9.99959 3.44443 9.80515 2.97221 9.41626 2.58332C9.02737 2.19443 8.55515 1.99999 7.99959 1.99999C7.44404 1.99999 6.97182 2.19443 6.58293 2.58332C6.19404 2.97221 5.99959 3.44443 5.99959 3.99999V5.33332Z" fill="#333333"/>
</svg>
