<svg width="16" height="16" viewBox="0 0 16 16" fill="none" xmlns="http://www.w3.org/2000/svg">
<path d="M12 5.33333C12.3536 5.33333 12.6928 5.47381 12.9428 5.72386C13.1929 5.9739 13.3334 6.31304 13.3334 6.66666V13.3333C13.3334 13.687 13.1929 14.0261 12.9428 14.2761C12.6928 14.5262 12.3536 14.6667 12 14.6667H4.00002C3.6464 14.6667 3.30726 14.5262 3.05721 14.2761C2.80716 14.0261 2.66669 13.687 2.66669 13.3333V6.66666C2.66669 6.31304 2.80716 5.9739 3.05721 5.72386C3.30726 5.47381 3.6464 5.33333 4.00002 5.33333H10V4C10 3.46956 9.78931 2.96086 9.41423 2.58578C9.03916 2.21071 8.53045 2 8.00002 2C7.46959 2 6.96088 2.21071 6.58581 2.58578C6.21073 2.96086 6.00002 3.46956 6.00002 4H4.66669C4.66669 3.11594 5.01788 2.2681 5.643 1.64297C6.26812 1.01785 7.11597 0.666664 8.00002 0.666664C8.43776 0.666664 8.87121 0.752883 9.27563 0.920399C9.68005 1.08791 10.0475 1.33345 10.357 1.64297C10.6666 1.9525 10.9121 2.31997 11.0796 2.72439C11.2471 3.1288 11.3334 3.56226 11.3334 4V5.33333H12ZM8.00002 11.3333C8.35364 11.3333 8.69278 11.1929 8.94283 10.9428C9.19288 10.6928 9.33335 10.3536 9.33335 10C9.33335 9.64638 9.19288 9.30724 8.94283 9.05719C8.69278 8.80714 8.35364 8.66666 8.00002 8.66666C7.6464 8.66666 7.30726 8.80714 7.05721 9.05719C6.80716 9.30724 6.66669 9.64638 6.66669 10C6.66669 10.3536 6.80716 10.6928 7.05721 10.9428C7.30726 11.1929 7.6464 11.3333 8.00002 11.3333Z" fill="#1C94A3"/>
</svg>
