<svg width="16" height="16" viewBox="0 0 16 16" fill="none" xmlns="http://www.w3.org/2000/svg">
<path d="M4.00002 14.6667C3.63335 14.6667 3.31935 14.536 3.05802 14.2747C2.79669 14.0133 2.66624 13.6995 2.66669 13.3333V6.66666C2.66669 6.29999 2.79735 5.98599 3.05869 5.72466C3.32002 5.46332 3.6338 5.33288 4.00002 5.33332H4.66669V3.99999C4.66669 3.07777 4.9918 2.29155 5.64202 1.64132C6.29224 0.991101 7.07824 0.666213 8.00002 0.666657C8.92224 0.666657 9.70847 0.991768 10.3587 1.64199C11.0089 2.29221 11.3338 3.07821 11.3334 3.99999V5.33332H12C12.3667 5.33332 12.6807 5.46399 12.942 5.72532C13.2034 5.98666 13.3338 6.30044 13.3334 6.66666V13.3333C13.3334 13.7 13.2027 14.014 12.9414 14.2753C12.68 14.5367 12.3662 14.6671 12 14.6667H4.00002ZM8.00002 11.3333C8.36669 11.3333 8.68069 11.2027 8.94202 10.9413C9.20336 10.68 9.3338 10.3662 9.33335 9.99999C9.33335 9.63332 9.20269 9.31932 8.94135 9.05799C8.68002 8.79666 8.36624 8.66621 8.00002 8.66666C7.63336 8.66666 7.31936 8.79732 7.05802 9.05866C6.79669 9.31999 6.66624 9.63377 6.66669 9.99999C6.66669 10.3667 6.79736 10.6807 7.05869 10.942C7.32002 11.2033 7.6338 11.3338 8.00002 11.3333ZM6.00002 5.33332H10V3.99999C10 3.44443 9.80558 2.97221 9.41669 2.58332C9.0278 2.19443 8.55558 1.99999 8.00002 1.99999C7.44447 1.99999 6.97224 2.19443 6.58335 2.58332C6.19447 2.97221 6.00002 3.44443 6.00002 3.99999V5.33332Z" fill="white"/>
</svg>
