<svg width="16" height="16" viewBox="0 0 16 16" fill="none" xmlns="http://www.w3.org/2000/svg">
<path d="M4.00002 14.6667C3.63335 14.6667 3.31935 14.536 3.05802 14.2747C2.79669 14.0133 2.66624 13.6996 2.66669 13.3333V6.66667C2.66669 6.3 2.79735 5.986 3.05869 5.72466C3.32002 5.46333 3.6338 5.33289 4.00002 5.33333H4.66669V4C4.66669 3.07778 4.9918 2.29155 5.64202 1.64133C6.29224 0.991109 7.07824 0.66622 8.00002 0.666665C8.92224 0.666665 9.70847 0.991776 10.3587 1.642C11.0089 2.29222 11.3338 3.07822 11.3334 4V5.33333H12C12.3667 5.33333 12.6807 5.464 12.942 5.72533C13.2034 5.98666 13.3338 6.30044 13.3334 6.66667V13.3333C13.3334 13.7 13.2027 14.014 12.9414 14.2753C12.68 14.5367 12.3662 14.6671 12 14.6667H4.00002ZM8.00002 11.3333C8.36669 11.3333 8.68069 11.2027 8.94202 10.9413C9.20336 10.68 9.3338 10.3662 9.33335 10C9.33335 9.63333 9.20269 9.31933 8.94135 9.058C8.68002 8.79667 8.36624 8.66622 8.00002 8.66667C7.63336 8.66667 7.31936 8.79733 7.05802 9.05867C6.79669 9.32 6.66624 9.63378 6.66669 10C6.66669 10.3667 6.79736 10.6807 7.05869 10.942C7.32002 11.2033 7.6338 11.3338 8.00002 11.3333ZM6.00002 5.33333H10V4C10 3.44444 9.80558 2.97222 9.41669 2.58333C9.0278 2.19444 8.55558 2 8.00002 2C7.44447 2 6.97224 2.19444 6.58335 2.58333C6.19447 2.97222 6.00002 3.44444 6.00002 4V5.33333Z" fill="#1C94A3"/>
</svg>
