<svg width="48" height="48" viewBox="0 0 48 48" fill="none" xmlns="http://www.w3.org/2000/svg">
<circle cx="24" cy="24" r="24" fill="#F1F3F4"/>
<path d="M20.0714 30.6654C21.1191 30.6654 21.9762 29.8082 21.9762 28.7606V19.2368C21.9762 18.1892 21.1191 17.332 20.0714 17.332C19.0238 17.332 18.1667 18.1892 18.1667 19.2368V28.7606C18.1667 29.8082 19.0238 30.6654 20.0714 30.6654ZM25.7857 19.2368V28.7606C25.7857 29.8082 26.6429 30.6654 27.6905 30.6654C28.7381 30.6654 29.5953 29.8082 29.5953 28.7606V19.2368C29.5953 18.1892 28.7381 17.332 27.6905 17.332C26.6429 17.332 25.7857 18.1892 25.7857 19.2368Z" fill="black"/>
</svg>
