<svg width="20" height="20" viewBox="0 0 20 20" fill="none" xmlns="http://www.w3.org/2000/svg">
<g id="ph:warning">
<path id="Vector" d="M18.5 14.6946L11.668 2.82974C11.4972 2.53906 11.2535 2.29803 10.9609 2.13057C10.6684 1.9631 10.3371 1.875 9.99998 1.875C9.66287 1.875 9.33161 1.9631 9.03904 2.13057C8.74647 2.29803 8.50274 2.53906 8.33202 2.82974L1.49998 14.6946C1.33571 14.9757 1.24915 15.2955 1.24915 15.6211C1.24915 15.9468 1.33571 16.2665 1.49998 16.5477C1.66852 16.8401 1.91184 17.0825 2.20495 17.2498C2.49807 17.4172 2.83044 17.5036 3.16795 17.5001H16.832C17.1693 17.5033 17.5013 17.4168 17.7941 17.2494C18.0869 17.0821 18.33 16.8399 18.4984 16.5477C18.6629 16.2667 18.7498 15.947 18.75 15.6214C18.7503 15.2957 18.664 14.9759 18.5 14.6946ZM17.4164 15.9219C17.3568 16.0235 17.2713 16.1075 17.1686 16.1651C17.0659 16.2228 16.9498 16.2521 16.832 16.2501H3.16795C3.0502 16.2521 2.93402 16.2228 2.83133 16.1651C2.72865 16.1075 2.64314 16.0235 2.58358 15.9219C2.52963 15.8306 2.50117 15.7264 2.50117 15.6204C2.50117 15.5143 2.52963 15.4101 2.58358 15.3188L9.41561 3.45396C9.47637 3.35284 9.56227 3.26917 9.66494 3.21108C9.76762 3.153 9.88358 3.12247 10.0015 3.12247C10.1195 3.12247 10.2355 3.153 10.3381 3.21108C10.4408 3.26917 10.5267 3.35284 10.5875 3.45396L17.4195 15.3188C17.473 15.4104 17.5009 15.5147 17.5004 15.6208C17.4998 15.7269 17.4708 15.8309 17.4164 15.9219ZM9.37498 11.2501V8.12505C9.37498 7.95929 9.44083 7.80032 9.55804 7.68311C9.67525 7.5659 9.83422 7.50005 9.99998 7.50005C10.1657 7.50005 10.3247 7.5659 10.4419 7.68311C10.5591 7.80032 10.625 7.95929 10.625 8.12505V11.2501C10.625 11.4158 10.5591 11.5748 10.4419 11.692C10.3247 11.8092 10.1657 11.8751 9.99998 11.8751C9.83422 11.8751 9.67525 11.8092 9.55804 11.692C9.44083 11.5748 9.37498 11.4158 9.37498 11.2501ZM10.9375 14.0626C10.9375 14.248 10.8825 14.4292 10.7795 14.5834C10.6765 14.7376 10.5301 14.8577 10.3587 14.9287C10.1874 14.9996 9.99894 15.0182 9.81709 14.982C9.63523 14.9459 9.46818 14.8566 9.33707 14.7255C9.20596 14.5944 9.11667 14.4273 9.0805 14.2454C9.04432 14.0636 9.06289 13.8751 9.13385 13.7038C9.2048 13.5325 9.32497 13.3861 9.47914 13.283C9.63331 13.18 9.81456 13.1251 9.99998 13.1251C10.2486 13.1251 10.4871 13.2238 10.6629 13.3996C10.8387 13.5755 10.9375 13.8139 10.9375 14.0626Z" fill="#E7740B"/>
</g>
</svg>
