<svg width="25" height="25" viewBox="0 0 25 25" fill="none" xmlns="http://www.w3.org/2000/svg">
<path fill-rule="evenodd" clip-rule="evenodd" d="M0 12.5C0 5.59642 5.59642 0 12.5 0C19.4036 0 25 5.59642 25 12.5C25 19.4036 19.4036 25 12.5 25C5.59965 24.9922 0.0077621 19.4004 0 12.5ZM0.806452 12.5C0.806452 18.9582 6.04183 24.1935 12.5 24.1935C18.9582 24.1935 24.1935 18.9582 24.1935 12.5C24.1935 6.04183 18.9582 0.806452 12.5 0.806452C6.04486 0.81381 0.81381 6.04486 0.806452 12.5Z" fill="#1C94A3"/>
<path d="M16.4688 12.0938H12.9062V8.53125C12.9062 8.3069 12.7244 8.125 12.5 8.125C12.2756 8.125 12.0938 8.3069 12.0938 8.53125V12.0938H8.53125C8.3069 12.0938 8.125 12.2756 8.125 12.5C8.125 12.7244 8.3069 12.9062 8.53125 12.9062H12.0938V16.4688C12.0938 16.6931 12.2756 16.875 12.5 16.875C12.7244 16.875 12.9062 16.6931 12.9062 16.4688V12.9062H16.4688C16.6931 12.9062 16.875 12.7244 16.875 12.5C16.875 12.2756 16.6931 12.0938 16.4688 12.0938Z" fill="#1C94A3"/>
</svg>
