<svg width="16" height="16" viewBox="0 0 16 16" fill="none" xmlns="http://www.w3.org/2000/svg">
<path fill-rule="evenodd" clip-rule="evenodd" d="M14.6667 0H1.33333C0.97982 0.000352984 0.640886 0.140942 0.390914 0.390914C0.140942 0.640886 0.000352984 0.97982 0 1.33333V14.6667C0.000352984 15.0202 0.140942 15.3591 0.390914 15.6091C0.640886 15.8591 0.97982 15.9996 1.33333 16H16V14.6667V1.33333C15.9996 0.97982 15.8591 0.640886 15.6091 0.390914C15.3591 0.140942 15.0202 0.000352984 14.6667 0ZM14.6667 14.6667H1.33333V5.33333H14.6667V14.6667ZM14.6667 4H1.33333V1.33333H14.6667V4ZM3 7.5C3 7.36739 3.05644 7.24021 3.15691 7.14645C3.25737 7.05268 3.39363 7 3.53571 7H8.46429C8.60637 7 8.74263 7.05268 8.84309 7.14645C8.94356 7.24021 9 7.36739 9 7.5C9 7.63261 8.94356 7.75979 8.84309 7.85355C8.74263 7.94732 8.60637 8 8.46429 8H3.53571C3.39363 8 3.25737 7.94732 3.15691 7.85355C3.05644 7.75979 3 7.63261 3 7.5ZM3 10.5C3 10.3674 3.05644 10.2402 3.15691 10.1464C3.25737 10.0527 3.39363 10 3.53571 10H12.4643C12.6064 10 12.7426 10.0527 12.8431 10.1464C12.9436 10.2402 13 10.3674 13 10.5C13 10.6326 12.9436 10.7598 12.8431 10.8536C12.7426 10.9473 12.6064 11 12.4643 11H3.53571C3.39363 11 3.25737 10.9473 3.15691 10.8536C3.05644 10.7598 3 10.6326 3 10.5ZM3.15691 12.1464C3.05644 12.2402 3 12.3674 3 12.5C3 12.6326 3.05644 12.7598 3.15691 12.8536C3.25737 12.9473 3.39363 13 3.53571 13H12.4643C12.6064 13 12.7426 12.9473 12.8431 12.8536C12.9436 12.7598 13 12.6326 13 12.5C13 12.3674 12.9436 12.2402 12.8431 12.1464C12.7426 12.0527 12.6064 12 12.4643 12H3.53571C3.39363 12 3.25737 12.0527 3.15691 12.1464ZM14 2.66667C14 3.03486 13.7015 3.33333 13.3333 3.33333C12.9651 3.33333 12.6667 3.03486 12.6667 2.66667C12.6667 2.29848 12.9651 2 13.3333 2C13.7015 2 14 2.29848 14 2.66667Z" fill="black"/>
</svg>
