<svg width="16" height="16" viewBox="0 0 16 16" fill="none" xmlns="http://www.w3.org/2000/svg">
<path fill-rule="evenodd" clip-rule="evenodd" d="M14.6667 0H1.33334C0.979828 0.000488281 0.6409 0.141113 0.3909 0.391113C0.14093 0.641113 0.000366211 0.97998 0 1.3335V14.6665C0.000366211 15.02 0.14093 15.3589 0.3909 15.6089C0.6409 15.8589 0.979828 15.9995 1.33334 16H16V14.6665V1.3335C15.9996 0.97998 15.8591 0.641113 15.6091 0.391113C15.3591 0.141113 15.0202 0.000488281 14.6667 0ZM14.6667 14.6665H1.33334V5.3335H14.6667V14.6665ZM14.6667 4H1.33334V1.3335H14.6667V4ZM3 7.5C3 7.36719 3.05643 7.24023 3.15692 7.14648C3.25739 7.05273 3.39365 7 3.53571 7H8.46429C8.60635 7 8.74261 7.05273 8.84308 7.14648C8.94357 7.24023 9 7.36719 9 7.5C9 7.63281 8.94357 7.75977 8.84308 7.85352C8.74261 7.94727 8.60635 8 8.46429 8H3.53571C3.39365 8 3.25739 7.94727 3.15692 7.85352C3.13116 7.82959 3.10831 7.80322 3.08856 7.77539C3.03122 7.69434 3 7.59863 3 7.5ZM3.00467 10.4336C3.00809 10.4097 3.01337 10.3862 3.02042 10.3633C3.0361 10.312 3.06058 10.2627 3.09302 10.2183C3.11172 10.1924 3.13309 10.1685 3.15692 10.1465C3.25739 10.0527 3.39365 10 3.53571 10H12.4643C12.5437 10 12.6213 10.0166 12.6919 10.0474C12.7475 10.0718 12.7988 10.105 12.8431 10.1465C12.9436 10.2402 13 10.3672 13 10.5C13 10.6328 12.9436 10.7598 12.8431 10.8535C12.7426 10.9473 12.6064 11 12.4643 11H3.53571C3.39365 11 3.25739 10.9473 3.15692 10.8535C3.05643 10.7598 3 10.6328 3 10.5C3 10.4775 3.00159 10.4556 3.00467 10.4336ZM3.04111 12.3076C3.01422 12.3677 3 12.4331 3 12.5C3 12.6328 3.05643 12.7598 3.15692 12.8535C3.20367 12.897 3.25815 12.9316 3.31738 12.9565C3.35565 12.9727 3.39594 12.9844 3.43735 12.9917C3.46957 12.9971 3.50247 13 3.53571 13H12.4643C12.6064 13 12.7426 12.9473 12.8431 12.8535C12.9436 12.7598 13 12.6328 13 12.5C13 12.3672 12.9436 12.2402 12.8431 12.1465C12.7426 12.0527 12.6064 12 12.4643 12H3.53571C3.44794 12 3.3624 12.02 3.28613 12.0576C3.26492 12.0684 3.24442 12.0801 3.22476 12.0933C3.20074 12.1089 3.17804 12.127 3.15692 12.1465C3.10687 12.1934 3.06775 12.248 3.04111 12.3076ZM14 2.6665C14 3.03467 13.7015 3.3335 13.3333 3.3335C12.9651 3.3335 12.6667 3.03467 12.6667 2.6665C12.6667 2.29834 12.9651 2 13.3333 2C13.7015 2 14 2.29834 14 2.6665Z" fill="#A5B2B3"/>
</svg>
