<svg width="16" height="16" viewBox="0 0 16 16" fill="none" xmlns="http://www.w3.org/2000/svg">
<path d="M16 12.0001V10.6667H14.5994C14.5134 10.2494 14.3477 9.85262 14.1114 9.49808L15.1047 8.50475L14.162 7.56208L13.1687 8.55541C12.8141 8.31909 12.4173 8.15339 12 8.06741V6.66675H10.6667V8.06741C10.2494 8.15339 9.85256 8.31909 9.49802 8.55541L8.50469 7.56208L7.56202 8.50475L8.55535 9.49808C8.31903 9.85262 8.15333 10.2494 8.06735 10.6667H6.66669V12.0001H8.06735C8.15333 12.4174 8.31903 12.8142 8.55535 13.1687L7.56202 14.1621L8.50469 15.1047L9.49802 14.1114C9.85256 14.3477 10.2494 14.5134 10.6667 14.5994V16.0001H12V14.5994C12.4173 14.5134 12.8141 14.3477 13.1687 14.1114L14.162 15.1047L15.1047 14.1621L14.1114 13.1687C14.3477 12.8142 14.5134 12.4174 14.5994 12.0001H16ZM11.3334 13.3334C10.9378 13.3334 10.5511 13.2161 10.2222 12.9964C9.89332 12.7766 9.63697 12.4642 9.48559 12.0988C9.33422 11.7333 9.29461 11.3312 9.37178 10.9432C9.44895 10.5553 9.63943 10.1989 9.91914 9.9192C10.1988 9.6395 10.5552 9.44901 10.9432 9.37184C11.3311 9.29467 11.7333 9.33428 12.0987 9.48566C12.4642 9.63703 12.7765 9.89338 12.9963 10.2223C13.2161 10.5512 13.3334 10.9379 13.3334 11.3334C13.3328 11.8637 13.1219 12.3721 12.747 12.747C12.372 13.122 11.8636 13.3329 11.3334 13.3334Z" fill="#A5B2B3"/>
<path d="M14.6667 0H1.33333C0.97982 0.000352984 0.640886 0.140942 0.390914 0.390914C0.140942 0.640886 0.000352984 0.97982 0 1.33333V14.6667C0.000352984 15.0202 0.140942 15.3591 0.390914 15.6091C0.640886 15.8591 0.97982 15.9996 1.33333 16H5.33333V14.6667H1.33333V5.33333H14.6667V7.33333H16V1.33333C15.9996 0.97982 15.8591 0.640886 15.6091 0.390914C15.3591 0.140942 15.0202 0.000352984 14.6667 0ZM14.6667 4H1.33333V1.33333H14.6667V4Z" fill="#A5B2B3"/>
<path d="M13.3334 3.33333C13.7015 3.33333 14 3.03486 14 2.66667C14 2.29848 13.7015 2 13.3334 2C12.9652 2 12.6667 2.29848 12.6667 2.66667C12.6667 3.03486 12.9652 3.33333 13.3334 3.33333Z" fill="#A5B2B3"/>
</svg>
