<svg width="24" height="24" viewBox="0 0 24 24" fill="none" xmlns="http://www.w3.org/2000/svg">
<g id="mingcute:right-line">
<g clip-path="url(#clip0_1762_36)">
<rect width="24" height="24" rx="4" fill="#F0F1F1"/>
<g id="Group">
<path id="Vector" fill-rule="evenodd" clip-rule="evenodd" d="M8.62347 11.2929C8.436 11.4805 8.33068 11.7348 8.33068 11.9999C8.33068 12.2651 8.436 12.5194 8.62347 12.7069L14.2805 18.3639C14.3727 18.4594 14.4831 18.5356 14.6051 18.588C14.7271 18.6404 14.8583 18.668 14.9911 18.6692C15.1238 18.6703 15.2555 18.645 15.3784 18.5948C15.5013 18.5445 15.613 18.4702 15.7069 18.3763C15.8008 18.2824 15.875 18.1708 15.9253 18.0479C15.9756 17.925 16.0009 17.7933 15.9997 17.6605C15.9986 17.5278 15.971 17.3965 15.9186 17.2745C15.8662 17.1525 15.79 17.0422 15.6945 16.9499L10.7445 11.9999L15.6945 7.04994C15.8766 6.86133 15.9774 6.60873 15.9751 6.34653C15.9729 6.08434 15.8677 5.83353 15.6823 5.64812C15.4969 5.46271 15.2461 5.35754 14.9839 5.35526C14.7217 5.35298 14.4691 5.45378 14.2805 5.63594L8.62347 11.2929Z" fill="black"/>
</g>
</g>
</g>
<defs>
<clipPath id="clip0_1762_36">
<rect width="24" height="24" rx="4" fill="white"/>
</clipPath>
</defs>
</svg>
