<svg width="24" height="24" viewBox="0 0 24 24" fill="none" xmlns="http://www.w3.org/2000/svg">
<g id="mingcute:right-line">
<g clip-path="url(#clip0_1762_44)">
<rect width="24" height="24" rx="4" fill="#F0F1F1"/>
<g id="Group">
<path id="Vector" fill-rule="evenodd" clip-rule="evenodd" d="M15.7071 11.2929C15.8946 11.4805 15.9999 11.7348 15.9999 11.9999C15.9999 12.2651 15.8946 12.5194 15.7071 12.7069L10.0501 18.3639C9.95785 18.4594 9.84751 18.5356 9.7255 18.588C9.6035 18.6404 9.47228 18.668 9.3395 18.6692C9.20672 18.6703 9.07504 18.645 8.95215 18.5948C8.82925 18.5445 8.7176 18.4702 8.6237 18.3763C8.52981 18.2824 8.45556 18.1708 8.40528 18.0479C8.355 17.925 8.32969 17.7933 8.33085 17.6605C8.332 17.5278 8.35959 17.3965 8.412 17.2745C8.46441 17.1525 8.54059 17.0422 8.6361 16.9499L13.5861 11.9999L8.6361 7.04994C8.45394 6.86133 8.35315 6.60873 8.35542 6.34653C8.3577 6.08434 8.46287 5.83353 8.64828 5.64812C8.83369 5.46271 9.0845 5.35754 9.3467 5.35526C9.60889 5.35298 9.8615 5.45378 10.0501 5.63594L15.7071 11.2929Z" fill="black"/>
</g>
</g>
</g>
<defs>
<clipPath id="clip0_1762_44">
<rect width="24" height="24" rx="4" fill="white"/>
</clipPath>
</defs>
</svg>
