<svg width="16" height="16" viewBox="0 0 16 16" fill="none" xmlns="http://www.w3.org/2000/svg">
<g clip-path="url(#clip0_494_1975)">
<path fill-rule="evenodd" clip-rule="evenodd" d="M7.00005 1.33398C6.09644 1.33406 5.20596 1.55023 4.40288 1.96445C3.59981 2.37867 2.90744 2.97893 2.38354 3.71515C1.85963 4.45138 1.51939 5.30222 1.39119 6.19668C1.26298 7.09114 1.35055 8.0033 1.64657 8.85704C1.94259 9.71078 2.43848 10.4814 3.09287 11.1045C3.74727 11.7276 4.54118 12.1852 5.40839 12.4391C6.2756 12.6929 7.19094 12.7357 8.07806 12.5639C8.96518 12.3921 9.79835 12.0106 10.508 11.4513L12.9427 13.886C13.0684 14.0074 13.2369 14.0746 13.4116 14.0731C13.5864 14.0716 13.7537 14.0015 13.8773 13.8779C14.0009 13.7543 14.071 13.587 14.0725 13.4123C14.074 13.2375 14.0068 13.0691 13.8854 12.9433L11.4507 10.5087C12.1094 9.67306 12.5195 8.66892 12.6341 7.61113C12.7487 6.55335 12.5632 5.48466 12.0989 4.52738C11.6345 3.5701 10.91 2.76289 10.0082 2.19814C9.10653 1.63339 8.06402 1.33391 7.00005 1.33398ZM2.66671 7.00065C2.66671 5.85138 3.12326 4.74918 3.93592 3.93652C4.74858 3.12386 5.85078 2.66732 7.00005 2.66732C8.14932 2.66732 9.25152 3.12386 10.0642 3.93652C10.8768 4.74918 11.3334 5.85138 11.3334 7.00065C11.3334 8.14992 10.8768 9.25212 10.0642 10.0648C9.25152 10.8774 8.14932 11.334 7.00005 11.334C5.85078 11.334 4.74858 10.8774 3.93592 10.0648C3.12326 9.25212 2.66671 8.14992 2.66671 7.00065Z" fill="black"/>
</g>
<defs>
<clipPath id="clip0_494_1975">
<rect width="16" height="16" fill="white"/>
</clipPath>
</defs>
</svg>
