<svg width="16" height="16" viewBox="0 0 16 16" fill="none" xmlns="http://www.w3.org/2000/svg">
<path fill-rule="evenodd" clip-rule="evenodd" d="M8.97996 3.64623C9.07371 3.55259 9.20079 3.5 9.33329 3.5C9.46579 3.5 9.59288 3.55259 9.68663 3.64623L13.6866 7.64623C13.7803 7.73998 13.8329 7.86706 13.8329 7.99956C13.8329 8.13206 13.7803 8.25914 13.6866 8.35289L9.68663 12.3529C9.64085 12.402 9.58565 12.4414 9.52432 12.4687C9.46298 12.4961 9.39678 12.5108 9.32964 12.512C9.26251 12.5131 9.19582 12.5008 9.13356 12.4756C9.0713 12.4505 9.01475 12.4131 8.96727 12.3656C8.91979 12.3181 8.88236 12.2615 8.85721 12.1993C8.83206 12.137 8.81971 12.0703 8.8209 12.0032C8.82208 11.9361 8.83678 11.8699 8.8641 11.8085C8.89143 11.7472 8.93083 11.692 8.97996 11.6462L12.1266 8.49956H2.66663C2.53402 8.49956 2.40684 8.44688 2.31307 8.35311C2.2193 8.25935 2.16663 8.13217 2.16663 7.99956C2.16663 7.86695 2.2193 7.73978 2.31307 7.64601C2.40684 7.55224 2.53402 7.49956 2.66663 7.49956H12.1266L8.97996 4.35289C8.88633 4.25914 8.83373 4.13206 8.83373 3.99956C8.83373 3.86706 8.88633 3.73998 8.97996 3.64623Z" fill="#1C94A3"/>
</svg>
