<svg width="32" height="32" viewBox="0 0 32 32" fill="none" xmlns="http://www.w3.org/2000/svg">
<rect width="32" height="32" rx="4" fill="#1C94A3"/>
<path d="M18.8333 15.5C17.5558 15.5 16.5 14.4442 16.5 13.1667C16.5 12.7537 16.6202 12.3698 16.8127 12.0315C16.7077 12.0233 16.6073 12 16.5 12C15.5736 12.0061 14.6869 12.3768 14.0319 13.0319C13.3768 13.6869 13.0061 14.5736 13 15.5C13 17.4157 14.5843 19 16.5 19C18.4145 19 20 17.4157 20 15.5C20 15.3927 19.9767 15.2923 19.9685 15.1873C19.6302 15.3798 19.2463 15.5 18.8333 15.5Z" fill="white"/>
<path d="M16 8C7.6488 8 5.13895 15.2396 5.11597 15.3129L5 15.6586L5.11488 16.0044C5.13895 16.0777 7.6488 23.3173 16 23.3173C24.3512 23.3173 26.861 16.0777 26.884 16.0044L27 15.6586L26.8851 15.3129C26.861 15.2396 24.3512 8 16 8ZM16 22.2232C9.98244 22.2232 6.78337 16.9212 6.23414 15.6586C6.78556 14.3917 9.98244 9.09409 16 9.09409C22.5645 9.09409 25.2166 14.3961 25.7659 15.6586C25.2144 16.9256 22.1397 22.2232 16 22.2232Z" fill="white"/>
</svg>
