<svg width="48" height="48" viewBox="0 0 48 48" fill="none" xmlns="http://www.w3.org/2000/svg">
<circle cx="24" cy="24" r="24" fill="#F1F3F4"/>
<path d="M24 28C26.2133 28 27.9867 26.2133 27.9867 24L28 16C28 13.7867 26.2133 12 24 12C21.7867 12 20 13.7867 20 16V24C20 26.2133 21.7867 28 24 28ZM32.1067 24C31.5467 24 31.08 24.4 31 24.9467C30.5067 28.4267 27.3733 30.8 24 30.8C20.6267 30.8 17.4933 28.44 17 24.9467C16.9589 24.6827 16.8248 24.4422 16.6218 24.2686C16.4189 24.095 16.1605 23.9997 15.8933 24C15.2 24 14.6667 24.6133 14.76 25.2933C15.3733 29.2533 18.7067 32.36 22.6667 32.96V36C22.6667 36.7333 23.2667 37.3333 24 37.3333C24.7333 37.3333 25.3333 36.7333 25.3333 36V32.96C29.28 32.3867 32.6267 29.2533 33.24 25.2933C33.2615 25.1319 33.2482 24.9678 33.2011 24.8119C33.1539 24.656 33.074 24.5121 32.9667 24.3896C32.8594 24.2671 32.7272 24.169 32.5788 24.1018C32.4305 24.0346 32.2695 23.9999 32.1067 24Z" fill="black"/>
</svg>
