<svg width="36" height="36" viewBox="0 0 36 36" fill="none" xmlns="http://www.w3.org/2000/svg">
<circle cx="18" cy="18" r="18" fill="#F1F3F4"/>
<path d="M18 21C19.66 21 20.99 19.66 20.99 18L21 12C21 10.34 19.66 9 18 9C16.34 9 15 10.34 15 12V18C15 19.66 16.34 21 18 21ZM24.08 18C23.66 18 23.31 18.3 23.25 18.71C22.88 21.32 20.53 23.1 18 23.1C15.47 23.1 13.12 21.33 12.75 18.71C12.7192 18.5121 12.6186 18.3317 12.4663 18.2014C12.3141 18.0712 12.1203 17.9998 11.92 18C11.4 18 11 18.46 11.07 18.97C11.53 21.94 14.03 24.27 17 24.72V27C17 27.55 17.45 28 18 28C18.55 28 19 27.55 19 27V24.72C21.96 24.29 24.47 21.94 24.93 18.97C24.9461 18.8489 24.9361 18.7258 24.9008 18.6089C24.8654 18.492 24.8055 18.384 24.725 18.2922C24.6445 18.2003 24.5453 18.1268 24.4341 18.0764C24.3228 18.026 24.2021 17.9999 24.08 18Z" fill="#EF3939"/>
</svg>
