<svg width="32" height="32" viewBox="0 0 32 32" fill="none" xmlns="http://www.w3.org/2000/svg">
<path fill-rule="evenodd" clip-rule="evenodd" d="M23.8334 7.33333H8.16675C7.98994 7.33333 7.82037 7.40357 7.69534 7.5286C7.57032 7.65362 7.50008 7.82319 7.50008 8V24C7.50008 24.1768 7.57032 24.3464 7.69534 24.4714C7.82037 24.5964 7.98994 24.6667 8.16675 24.6667H23.8334C24.0102 24.6667 24.1798 24.5964 24.3048 24.4714C24.4298 24.3464 24.5001 24.1768 24.5001 24V8C24.5001 7.82319 24.4298 7.65362 24.3048 7.5286C24.1798 7.40357 24.0102 7.33333 23.8334 7.33333ZM8.16675 6C7.63632 6 7.12761 6.21071 6.75253 6.58579C6.37746 6.96086 6.16675 7.46957 6.16675 8V24C6.16675 24.5304 6.37746 25.0391 6.75253 25.4142C7.12761 25.7893 7.63632 26 8.16675 26H23.8334C24.3638 26 24.8726 25.7893 25.2476 25.4142C25.6227 25.0391 25.8334 24.5304 25.8334 24V8C25.8334 7.46957 25.6227 6.96086 25.2476 6.58579C24.8726 6.21071 24.3638 6 23.8334 6H8.16675ZM10.3334 11.8333H11.6667V13.1667H10.3334V11.8333ZM13.6667 11.8333C13.4899 11.8333 13.3204 11.9036 13.1953 12.0286C13.0703 12.1536 13.0001 12.3232 13.0001 12.5C13.0001 12.6768 13.0703 12.8464 13.1953 12.9714C13.3204 13.0964 13.4899 13.1667 13.6667 13.1667H21.0001C21.1769 13.1667 21.3465 13.0964 21.4715 12.9714C21.5965 12.8464 21.6667 12.6768 21.6667 12.5C21.6667 12.3232 21.5965 12.1536 21.4715 12.0286C21.3465 11.9036 21.1769 11.8333 21.0001 11.8333H13.6667ZM11.6667 15.3333H10.3334V16.6667H11.6667V15.3333ZM13.0001 16C13.0001 15.8232 13.0703 15.6536 13.1953 15.5286C13.3204 15.4036 13.4899 15.3333 13.6667 15.3333H21.0001C21.1769 15.3333 21.3465 15.4036 21.4715 15.5286C21.5965 15.6536 21.6667 15.8232 21.6667 16C21.6667 16.1768 21.5965 16.3464 21.4715 16.4714C21.3465 16.5964 21.1769 16.6667 21.0001 16.6667H13.6667C13.4899 16.6667 13.3204 16.5964 13.1953 16.4714C13.0703 16.3464 13.0001 16.1768 13.0001 16ZM11.6667 18.8333H10.3334V20.1667H11.6667V18.8333ZM13.0001 19.5C13.0001 19.3232 13.0703 19.1536 13.1953 19.0286C13.3204 18.9036 13.4899 18.8333 13.6667 18.8333H21.0001C21.1769 18.8333 21.3465 18.9036 21.4715 19.0286C21.5965 19.1536 21.6667 19.3232 21.6667 19.5C21.6667 19.6768 21.5965 19.8464 21.4715 19.9714C21.3465 20.0964 21.1769 20.1667 21.0001 20.1667H13.6667C13.4899 20.1667 13.3204 20.0964 13.1953 19.9714C13.0703 19.8464 13.0001 19.6768 13.0001 19.5Z" fill="#1C94A3"/>
</svg>
