<svg width="16" height="16" viewBox="0 0 16 16" fill="none" xmlns="http://www.w3.org/2000/svg">
<g id="u:plus">
<path id="Vector" d="M12.6666 7.33341H8.66663V3.33341C8.66663 3.1566 8.59639 2.98703 8.47136 2.86201C8.34634 2.73699 8.17677 2.66675 7.99996 2.66675C7.82315 2.66675 7.65358 2.73699 7.52855 2.86201C7.40353 2.98703 7.33329 3.1566 7.33329 3.33341V7.33341H3.33329C3.15648 7.33341 2.98691 7.40365 2.86189 7.52868C2.73686 7.6537 2.66663 7.82327 2.66663 8.00008C2.66663 8.17689 2.73686 8.34646 2.86189 8.47149C2.98691 8.59651 3.15648 8.66675 3.33329 8.66675H7.33329V12.6667C7.33329 12.8436 7.40353 13.0131 7.52855 13.1382C7.65358 13.2632 7.82315 13.3334 7.99996 13.3334C8.17677 13.3334 8.34634 13.2632 8.47136 13.1382C8.59639 13.0131 8.66663 12.8436 8.66663 12.6667V8.66675H12.6666C12.8434 8.66675 13.013 8.59651 13.138 8.47149C13.2631 8.34646 13.3333 8.17689 13.3333 8.00008C13.3333 7.82327 13.2631 7.6537 13.138 7.52868C13.013 7.40365 12.8434 7.33341 12.6666 7.33341Z" fill="#3D3E4A"/>
</g>
</svg>
