<svg width="17" height="16" viewBox="0 0 17 16" fill="none" xmlns="http://www.w3.org/2000/svg">
<path d="M15.4274 3.98429C14.712 2.75868 13.7416 1.78829 12.5159 1.07292C11.29 0.357591 9.95183 0 8.50026 0C7.04883 0 5.71022 0.357591 4.48457 1.07292C3.25884 1.78818 2.28844 2.75857 1.57303 3.98429C0.857593 5.21009 0.5 6.54869 0.5 8C0.5 9.45138 0.857703 10.7898 1.57293 12.0156C2.28829 13.2412 3.25869 14.2116 4.48442 14.9271C5.71022 15.6424 7.04872 16 8.50011 16C9.9515 16 11.2901 15.6424 12.5159 14.9271C13.7415 14.2119 14.7119 13.2412 15.4272 12.0156C16.1424 10.7899 16.5 9.45131 16.5 8C16.5 6.54855 16.1424 5.2099 15.4274 3.98429Z" fill="#4ABB5C"/>
<path d="M15.4274 3.98429C14.712 2.75868 13.7416 1.78829 12.5159 1.07292C11.29 0.357591 9.95183 0 8.50026 0C7.04883 0 5.71022 0.357591 4.48457 1.07292C3.25884 1.78818 2.28844 2.75857 1.57303 3.98429C0.857593 5.21009 0.5 6.54869 0.5 8C0.5 9.45138 0.857703 10.7898 1.57293 12.0156C2.28829 13.2412 3.25869 14.2116 4.48442 14.9271C5.71022 15.6424 7.04872 16 8.50011 16C9.9515 16 11.2901 15.6424 12.5159 14.9271C13.7415 14.2119 14.7119 13.2412 15.4272 12.0156C16.1424 10.7899 16.5 9.45131 16.5 8C16.5 6.54855 16.1424 5.2099 15.4274 3.98429Z" fill="#4ABB5C"/>
<path d="M15.4274 3.98429C14.712 2.75868 13.7416 1.78829 12.5159 1.07292C11.29 0.357591 9.95183 0 8.50026 0C7.04883 0 5.71022 0.357591 4.48457 1.07292C3.25884 1.78818 2.28844 2.75857 1.57303 3.98429C0.857593 5.21009 0.5 6.54869 0.5 8C0.5 9.45138 0.857703 10.7898 1.57293 12.0156C2.28829 13.2412 3.25869 14.2116 4.48442 14.9271C5.71022 15.6424 7.04872 16 8.50011 16C9.9515 16 11.2901 15.6424 12.5159 14.9271C13.7415 14.2119 14.7119 13.2412 15.4272 12.0156C16.1424 10.7899 16.5 9.45131 16.5 8C16.5 6.54855 16.1424 5.2099 15.4274 3.98429Z" fill="#4ABB5C"/>
<path fill-rule="evenodd" clip-rule="evenodd" d="M7.975 11.28L12.975 5.28L11.439 4L7.139 9.159L4.914 6.933L3.5 8.347L6.5 11.347L7.274 12.121L7.975 11.28Z" fill="white"/>
</svg>
